/* XPM */
static char *coins[] = {
/* columns rows colors chars-per-pixel */
"32 32 6 1",
"  c #222222",
". c #483B3A",
"X c #775C55",
"o c #EE8E2E",
"O c #FACB3E",
"+ c #FDF7ED",
/* pixels */
"      ..        ......  ..      ",
"      ..        ......  ..      ",
"  ............................XX",
"  ............................XX",
"..............................XX",
"..............................XX",
"..............................XX",
"..............................XX",
"  ............................XX",
"  ............................XX",
"..............oo++............XX",
"..............oo++............XX",
"  ..........ooOOOO++............",
"  ..........ooOOOO++............",
"  ........ooOOOOOOOO++........XX",
"  ........ooOOOOOOOO++........XX",
"  ........ooOOOOOOOO++..........",
"  ........ooOOOOOOOO++..........",
"..........ooOOOOOOOO++........XX",
"..........ooOOOOOOOO++........XX",
"............ooOOOO++..........XX",
"............ooOOOO++..........XX",
"  ............oo++..............",
"  ............oo++..............",
"  ..............................",
"  ..............................",
"  ............................XX",
"  ............................XX",
"  ............................XX",
"  ............................XX",
"XXXXXX....XX..XXXXXXXX..XXXXXXXX",
"XXXXXX....XX..XXXXXXXX..XXXXXXXX"
};
