/* XPM */
static char *floor_1[] = {
/* columns rows colors chars-per-pixel */
"32 32 3 1",
"  c #222222",
". c #483B3A",
"X c #775C55",
/* pixels */
"      ..        ......  ..      ",
"      ..        ......  ..      ",
"  ............................XX",
"  ............................XX",
"..............................XX",
"..............................XX",
"..............................XX",
"..............................XX",
"  ............................XX",
"  ............................XX",
"..............................XX",
"..............................XX",
"  ..............................",
"  ..............................",
"  ............................XX",
"  ............................XX",
"  ..............................",
"  ..............................",
"..............................XX",
"..............................XX",
"..............................XX",
"..............................XX",
"  ..............................",
"  ..............................",
"  ..............................",
"  ..............................",
"  ............................XX",
"  ............................XX",
"  ............................XX",
"  ............................XX",
"XXXXXX....XX..XXXXXXXX..XXXXXXXX",
"XXXXXX....XX..XXXXXXXX..XXXXXXXX"
};
