/* XPM */
static char *floor_1[] = {
/* columns rows colors chars-per-pixel */
"32 32 8 1",
"  c #222222",
". c #483B3A",
"X c #775C55",
"a c #417089",
"b c #72D6CE",
"d c #DA4E38",
"e c #EE8E2E",
"f c #FDF7ED",
/* pixels */
"      ..        ......  ..      ",
"      ..        ......  ..      ",
"  ............................XX",
"  ............................XX",
"..............................XX",
"..............................XX",
"..............................XX",
"..............................XX",
"  ............................XX",
"  .........     ..............XX",
".......... deeee .............XX",
"......... d ddeee ............XX",
"  ...... d . ddee ..............",
"  ....... .   dd     ...........",
"  ......... bbbbbbff .........XX",
"  ......... bbaaaaaa   .......XX",
"  ......... bbabbbbbff .........",
"  ......... bbabababaf .........",
"........... bbabababaf .......XX",
"........... bbabababaf .......XX",
"........... bbabbbbbff .......XX",
"........... bbaaaaaa   .......XX",
"  ......... bbbbbbbf ...........",
"  ......... aaaaaaab ...........",
"  ......... bbbbbbbf ...........",
"  ......... bbbbbbbf ...........",
"  ......... aa    aa .........XX",
"  .........   ....   .........XX",
"  ............................XX",
"  ............................XX",
"XXXXXX....XX..XXXXXXXX..XXXXXXXX",
"XXXXXX....XX..XXXXXXXX..XXXXXXXX"
};
