/* XPM */
static char *walls[] = {
/* columns rows colors chars-per-pixel */
"32 32 6 1",
"  c #21141B",
". c #23151D",
"X c #222222",
"o c #2A2A3A",
"O c #483B3A",
"+ c #775C55",
/* pixels */
"++oo  OOOOXXOOOOOOOOXXOOOO  oo++",
"++oo  OOOOXXOOOOOOOOXXOOOO  oo++",
"OOoo  OOOOXXOOOOOOOOXXOOOO  ooOO",
"OOoo  OOOOXXOOOOOOOOXXOOOO  ooOO",
"OOoo    ++XXOOOOOOOOXX++..  ooOO",
"OOoo    ++XXOOOOOOOOXX++..  ooOO",
"XXXX  OO  OO++++++++OO  OO  XXXX",
"XXXX  OO  OO++++++++OO  OO  XXXX",
"++oo  OOOO..        ..OOOO  oo++",
"++oo  OOOO..        ..OOOO  oo++",
"OOoo  OOOOXXOOOOOOOOXXOOOO  ooOO",
"OOoo  OOOOXXOOOOOOOOXXOOOO  ooOO",
"OOoo  OOOOXXOOOOOOOOXXOOOO  ooOO",
"OOoo  OOOOXXOOOOOOOOXXOOOO  ooOO",
"XXXX  OOOOXXOOOOOOOOXXOOOO  XXXX",
"XXXX  OOOOXXOOOOOOOOXXOOOO  XXXX",
"++oo..OOOOXXOOOOOOOOXXOOOO  ooXX",
"++oo..OOOOXXOOOOOOOOXXOOOO  ooXX",
"OOoo  ..++XXOOOOOOOOXX++    ooOO",
"OOoo  ..++XXOOOOOOOOXX++    ooOO",
"OOoo  OO  OO++++++++OO  OO  ooOO",
"OOoo  OO  OO++++++++OO  OO  ooOO",
"XXXX  OOOO..        ..OOOO  XXXX",
"XXXX  OOOO..        ..OOOO  XXXX",
"++oo  OOOOXXOOOOOOOOXXOOOO  oo++",
"++oo  OOOOXXOOOOOOOOXXOOOO  oo++",
"OOoo  OOOOXXOOOOOOOOXXOOOO  ooOO",
"OOoo  OOOOXXOOOOOOOOXXOOOO  ooOO",
"OOoo..OOOOXXOOOOOOOOXXOOOO..ooOO",
"OOoo..OOOOXXOOOOOOOOXXOOOO..ooOO",
"XX  XX  ++XXOOOOOOOOXX++  XX  XX",
"XX  XX  ++XXOOOOOOOOXX++  XX  XX"
};
