/* XPM */
static char *_d0efcd32d304139aaf5aaf905ad4e12j35uVUlkTSbPAJXl[] = {
/* columns rows colors chars-per-pixel */
"16 16 3 1 ",
"  c #222222",
". c #483B3A",
"X c #775C55",
/* pixels */
"        ... .   ",
"    XX.........X",
"      ..XX.....X",
".     ..  .....X",
"      X........X",
".       .......X",
"        X.......",
" ..X     ......X",
" .. ...  .......",
"...............X",
"...............X",
" ...............",
" ...............",
" ..............X",
" ..............X",
"XXX..X.XXXX.XXXX"
};
