/* XPM */
static char *f131a53549a343db854d9f41cad4d4d5oweI9EyZwTeiiIRP[] = {
/* columns rows colors chars-per-pixel */
"16 16 3 1 ",
"  c #222222",
". c #483B3A",
"X c #775C55",
/* pixels */
"   .        .   ",
" .......       X",
"..........      ",
"...........     ",
" .........X    X",
".........X     X",
" ........  ..  .",
" ...........X  X",
" ........XX.   .",
"........   ....X",
".........  ....X",
" ...............",
" ...............",
" ..............X",
" ..............X",
"XXX..X.XXXX.XXXX"
};
