/* XPM */
static char *floor_2[] = {
/* columns rows colors chars-per-pixel */
"128 128 3 1",
"  c #222222",
". c #483B3A",
"X c #775C55",
/* pixels */
"                        ........                                ........................        ........                        ",
"                        ........                                ........................        ........                        ",
"                        ........                                ........................        ........                        ",
"                        ........                                ........................        ........                        ",
"                        ........                                ........................        ........                        ",
"                        ........                                ........................        ........                        ",
"                        ........                                ........................        ........                        ",
"                        ........                                ........................        ........                        ",
"        ................................................................................................................XXXXXXXX",
"        ................................................................................................................XXXXXXXX",
"        ................................................................................................................XXXXXXXX",
"        ................................................................................................................XXXXXXXX",
"        ................................................................................................................XXXXXXXX",
"        ................................................................................................................XXXXXXXX",
"        ................................................................................................................XXXXXXXX",
"        ................................................................................................................XXXXXXXX",
"........................................................................................................................XXXXXXXX",
"........................................................................................................................XXXXXXXX",
"........................................................................................................................XXXXXXXX",
"........................................................................................................................XXXXXXXX",
"........................................................................................................................XXXXXXXX",
"........................................................................................................................XXXXXXXX",
"........................................................................................................................XXXXXXXX",
"........................................................................................................................XXXXXXXX",
"........................................................................................................................XXXXXXXX",
"........................................................................................................................XXXXXXXX",
"........................................................................................................................XXXXXXXX",
"........................................................................................................................XXXXXXXX",
"........................................................................................................................XXXXXXXX",
"........................................................................................................................XXXXXXXX",
"........................................................................................................................XXXXXXXX",
"........................................................................................................................XXXXXXXX",
"        ........................XXXXXXXX................................................................................XXXXXXXX",
"        ........................XXXXXXXX................................................................................XXXXXXXX",
"        ........................XXXXXXXX................................................................................XXXXXXXX",
"        ........................XXXXXXXX................................................................................XXXXXXXX",
"        ........................XXXXXXXX................................................................................XXXXXXXX",
"        ........................XXXXXXXX................................................................................XXXXXXXX",
"        ........................XXXXXXXX................................................................................XXXXXXXX",
"        ........................XXXXXXXX................................................................................XXXXXXXX",
"................XXXXXXXXXXXXXXXX                XXXXXXXX................................................................XXXXXXXX",
"................XXXXXXXXXXXXXXXX                XXXXXXXX................................................................XXXXXXXX",
"................XXXXXXXXXXXXXXXX                XXXXXXXX................................................................XXXXXXXX",
"................XXXXXXXXXXXXXXXX                XXXXXXXX................................................................XXXXXXXX",
"................XXXXXXXXXXXXXXXX                XXXXXXXX................................................................XXXXXXXX",
"................XXXXXXXXXXXXXXXX                XXXXXXXX................................................................XXXXXXXX",
"................XXXXXXXXXXXXXXXX                XXXXXXXX................................................................XXXXXXXX",
"................XXXXXXXXXXXXXXXX                XXXXXXXX................................................................XXXXXXXX",
"        ........                ................                XXXXXXXX........................................................",
"        ........                ................                XXXXXXXX........................................................",
"        ........                ................                XXXXXXXX........................................................",
"        ........                ................                XXXXXXXX........................................................",
"        ........                ................                XXXXXXXX........................................................",
"        ........                ................                XXXXXXXX........................................................",
"        ........                ................                XXXXXXXX........................................................",
"        ........                ................                XXXXXXXX........................................................",
"                ................................................        ................................................XXXXXXXX",
"                ................................................        ................................................XXXXXXXX",
"                ................................................        ................................................XXXXXXXX",
"                ................................................        ................................................XXXXXXXX",
"                ................................................        ................................................XXXXXXXX",
"                ................................................        ................................................XXXXXXXX",
"                ................................................        ................................................XXXXXXXX",
"                ................................................        ................................................XXXXXXXX",
"        ................................................................        XXXXXXXXXXXXXXXX................................",
"        ................................................................        XXXXXXXXXXXXXXXX................................",
"        ................................................................        XXXXXXXXXXXXXXXX................................",
"        ................................................................        XXXXXXXXXXXXXXXX................................",
"        ................................................................        XXXXXXXXXXXXXXXX................................",
"        ................................................................        XXXXXXXXXXXXXXXX................................",
"        ................................................................        XXXXXXXXXXXXXXXX................................",
"        ................................................................        XXXXXXXXXXXXXXXX................................",
"................................................................        XXXXXXXX                XXXXXXXXXXXXXXXXXXXXXXXXXXXXXXXX",
"................................................................        XXXXXXXX                XXXXXXXXXXXXXXXXXXXXXXXXXXXXXXXX",
"................................................................        XXXXXXXX                XXXXXXXXXXXXXXXXXXXXXXXXXXXXXXXX",
"................................................................        XXXXXXXX                XXXXXXXXXXXXXXXXXXXXXXXXXXXXXXXX",
"................................................................        XXXXXXXX                XXXXXXXXXXXXXXXXXXXXXXXXXXXXXXXX",
"................................................................        XXXXXXXX                XXXXXXXXXXXXXXXXXXXXXXXXXXXXXXXX",
"................................................................        XXXXXXXX                XXXXXXXXXXXXXXXXXXXXXXXXXXXXXXXX",
"................................................................        XXXXXXXX                XXXXXXXXXXXXXXXXXXXXXXXXXXXXXXXX",
"........................................................XXXXXXXX        ........................                        XXXXXXXX",
"........................................................XXXXXXXX        ........................                        XXXXXXXX",
"........................................................XXXXXXXX        ........................                        XXXXXXXX",
"........................................................XXXXXXXX        ........................                        XXXXXXXX",
"........................................................XXXXXXXX        ........................                        XXXXXXXX",
"........................................................XXXXXXXX        ........................                        XXXXXXXX",
"........................................................XXXXXXXX        ........................                        XXXXXXXX",
"........................................................XXXXXXXX        ........................                        XXXXXXXX",
"        ........................................XXXXXXXX        ................................................................",
"        ........................................XXXXXXXX        ................................................................",
"        ........................................XXXXXXXX        ................................................................",
"        ........................................XXXXXXXX        ................................................................",
"        ........................................XXXXXXXX        ................................................................",
"        ........................................XXXXXXXX        ................................................................",
"        ........................................XXXXXXXX        ................................................................",
"        ........................................XXXXXXXX        ................................................................",
"        ........................................        ........................................................................",
"        ........................................        ........................................................................",
"        ........................................        ........................................................................",
"        ........................................        ........................................................................",
"        ........................................        ........................................................................",
"        ........................................        ........................................................................",
"        ........................................        ........................................................................",
"        ........................................        ........................................................................",
"        ................................XXXXXXXX        ................................................................XXXXXXXX",
"        ................................XXXXXXXX        ................................................................XXXXXXXX",
"        ................................XXXXXXXX        ................................................................XXXXXXXX",
"        ................................XXXXXXXX        ................................................................XXXXXXXX",
"        ................................XXXXXXXX        ................................................................XXXXXXXX",
"        ................................XXXXXXXX        ................................................................XXXXXXXX",
"        ................................XXXXXXXX        ................................................................XXXXXXXX",
"        ................................XXXXXXXX        ................................................................XXXXXXXX",
"        ................................                ................................................................XXXXXXXX",
"        ................................                ................................................................XXXXXXXX",
"        ................................                ................................................................XXXXXXXX",
"        ................................                ................................................................XXXXXXXX",
"        ................................                ................................................................XXXXXXXX",
"        ................................                ................................................................XXXXXXXX",
"        ................................                ................................................................XXXXXXXX",
"        ................................                ................................................................XXXXXXXX",
"XXXXXXXXXXXXXXXXXXXXXXXX........XXXXXXXXXXXXXXXX........XXXXXXXXXXXXXXXXXXXXXXXXXXXXXXXX........XXXXXXXXXXXXXXXXXXXXXXXXXXXXXXXX",
"XXXXXXXXXXXXXXXXXXXXXXXX........XXXXXXXXXXXXXXXX........XXXXXXXXXXXXXXXXXXXXXXXXXXXXXXXX........XXXXXXXXXXXXXXXXXXXXXXXXXXXXXXXX",
"XXXXXXXXXXXXXXXXXXXXXXXX........XXXXXXXXXXXXXXXX........XXXXXXXXXXXXXXXXXXXXXXXXXXXXXXXX........XXXXXXXXXXXXXXXXXXXXXXXXXXXXXXXX",
"XXXXXXXXXXXXXXXXXXXXXXXX........XXXXXXXXXXXXXXXX........XXXXXXXXXXXXXXXXXXXXXXXXXXXXXXXX........XXXXXXXXXXXXXXXXXXXXXXXXXXXXXXXX",
"XXXXXXXXXXXXXXXXXXXXXXXX........XXXXXXXXXXXXXXXX........XXXXXXXXXXXXXXXXXXXXXXXXXXXXXXXX........XXXXXXXXXXXXXXXXXXXXXXXXXXXXXXXX",
"XXXXXXXXXXXXXXXXXXXXXXXX........XXXXXXXXXXXXXXXX........XXXXXXXXXXXXXXXXXXXXXXXXXXXXXXXX........XXXXXXXXXXXXXXXXXXXXXXXXXXXXXXXX",
"XXXXXXXXXXXXXXXXXXXXXXXX........XXXXXXXXXXXXXXXX........XXXXXXXXXXXXXXXXXXXXXXXXXXXXXXXX........XXXXXXXXXXXXXXXXXXXXXXXXXXXXXXXX",
"XXXXXXXXXXXXXXXXXXXXXXXX........XXXXXXXXXXXXXXXX........XXXXXXXXXXXXXXXXXXXXXXXXXXXXXXXX........XXXXXXXXXXXXXXXXXXXXXXXXXXXXXXXX"
};
