/* XPM */
static char *floor_6[] = {
/* columns rows colors chars-per-pixel */
"128 128 3 1",
"  c #222222",
". c #483B3A",
"X c #775C55",
/* pixels */
"                        ........                                ........................        ........                        ",
"                        ........                                ........................        ........                        ",
"                        ........                                ........................        ........                        ",
"                        ........                                ........................        ........                        ",
"                        ........                                ........................        ........                        ",
"                        ........                                ........................        ........                        ",
"                        ........                                ........................        ........                        ",
"                        ........                                ........................        ........                        ",
"        ................................................................................................................XXXXXXXX",
"        ................................................................................................................XXXXXXXX",
"        ................................................................................................................XXXXXXXX",
"        ................................................................................................................XXXXXXXX",
"        ................................................................................................................XXXXXXXX",
"        ................................................................................................................XXXXXXXX",
"        ................................................................................................................XXXXXXXX",
"        ................................................................................................................XXXXXXXX",
"........................................................................................................................XXXXXXXX",
"........................................................................................................................XXXXXXXX",
"........................................................................................................................XXXXXXXX",
"........................................................................................................................XXXXXXXX",
"........................................................................................................................XXXXXXXX",
"........................................................................................................................XXXXXXXX",
"........................................................................................................................XXXXXXXX",
"........................................................................................................................XXXXXXXX",
"........................................................................................................................XXXXXXXX",
"........................................................................................................................XXXXXXXX",
"........................................................................................................................XXXXXXXX",
"........................................................................................................................XXXXXXXX",
"........................................................................................................................XXXXXXXX",
"........................................................................................................................XXXXXXXX",
"........................................................................................................................XXXXXXXX",
"........................................................................................................................XXXXXXXX",
"        ................................................................................................................XXXXXXXX",
"        ................................................................................................................XXXXXXXX",
"        ................................................................................................................XXXXXXXX",
"        ................................................................................................................XXXXXXXX",
"        ................................................................................................................XXXXXXXX",
"        ................................................................................................................XXXXXXXX",
"        ................................................................................................................XXXXXXXX",
"        ................................................................................................................XXXXXXXX",
"........................................................................................................................XXXXXXXX",
"........................................................................................................................XXXXXXXX",
"........................................................................................................................XXXXXXXX",
"........................................................................................................................XXXXXXXX",
"........................................................................................................................XXXXXXXX",
"........................................................................................................................XXXXXXXX",
"........................................................................................................................XXXXXXXX",
"........................................................................................................................XXXXXXXX",
"        ........................................................................................................................",
"        ........................................................................................................................",
"        ........................................................................................................................",
"        ........................................................................................................................",
"        ........................................................................................................................",
"        ........................................................................................................................",
"        ........................................................................................................................",
"        ........................................................................................................................",
"        ................................................XXXXXXXXXXXXXXXXXXXXXXXX........................................XXXXXXXX",
"        ................................................XXXXXXXXXXXXXXXXXXXXXXXX........................................XXXXXXXX",
"        ................................................XXXXXXXXXXXXXXXXXXXXXXXX........................................XXXXXXXX",
"        ................................................XXXXXXXXXXXXXXXXXXXXXXXX........................................XXXXXXXX",
"        ................................................XXXXXXXXXXXXXXXXXXXXXXXX........................................XXXXXXXX",
"        ................................................XXXXXXXXXXXXXXXXXXXXXXXX........................................XXXXXXXX",
"        ................................................XXXXXXXXXXXXXXXXXXXXXXXX........................................XXXXXXXX",
"        ................................................XXXXXXXXXXXXXXXXXXXXXXXX........................................XXXXXXXX",
"        ........................................                                XXXXXXXX................................XXXXXXXX",
"        ........................................                                XXXXXXXX................................XXXXXXXX",
"        ........................................                                XXXXXXXX................................XXXXXXXX",
"        ........................................                                XXXXXXXX................................XXXXXXXX",
"        ........................................                                XXXXXXXX................................XXXXXXXX",
"        ........................................                                XXXXXXXX................................XXXXXXXX",
"        ........................................                                XXXXXXXX................................XXXXXXXX",
"        ........................................                                XXXXXXXX................................XXXXXXXX",
"........................................................                                ................................        ",
"........................................................                                ................................        ",
"........................................................                                ................................        ",
"........................................................                                ................................        ",
"........................................................                                ................................        ",
"........................................................                                ................................        ",
"........................................................                                ................................        ",
"........................................................                                ................................        ",
"................................................................                        ........XXXXXXXXXXXXXXXX........        ",
"................................................................                        ........XXXXXXXXXXXXXXXX........        ",
"................................................................                        ........XXXXXXXXXXXXXXXX........        ",
"................................................................                        ........XXXXXXXXXXXXXXXX........        ",
"................................................................                        ........XXXXXXXXXXXXXXXX........        ",
"................................................................                        ........XXXXXXXXXXXXXXXX........        ",
"................................................................                        ........XXXXXXXXXXXXXXXX........        ",
"................................................................                        ........XXXXXXXXXXXXXXXX........        ",
"        ................................XXXXXXXXXXXXXXXX........................XXXXXXXXXXXXXXXX                                ",
"        ................................XXXXXXXXXXXXXXXX........................XXXXXXXXXXXXXXXX                                ",
"        ................................XXXXXXXXXXXXXXXX........................XXXXXXXXXXXXXXXX                                ",
"        ................................XXXXXXXXXXXXXXXX........................XXXXXXXXXXXXXXXX                                ",
"        ................................XXXXXXXXXXXXXXXX........................XXXXXXXXXXXXXXXX                                ",
"        ................................XXXXXXXXXXXXXXXX........................XXXXXXXXXXXXXXXX                                ",
"        ................................XXXXXXXXXXXXXXXX........................XXXXXXXXXXXXXXXX                                ",
"        ................................XXXXXXXXXXXXXXXX........................XXXXXXXXXXXXXXXX                                ",
"        ................................                XXXXXXXX................                                                ",
"        ................................                XXXXXXXX................                                                ",
"        ................................                XXXXXXXX................                                                ",
"        ................................                XXXXXXXX................                                                ",
"        ................................                XXXXXXXX................                                                ",
"        ................................                XXXXXXXX................                                                ",
"        ................................                XXXXXXXX................                                                ",
"        ................................                XXXXXXXX................                                                ",
"        ........................................                ................                                                ",
"        ........................................                ................                                                ",
"        ........................................                ................                                                ",
"        ........................................                ................                                                ",
"        ........................................                ................                                                ",
"        ........................................                ................                                                ",
"        ........................................                ................                                                ",
"        ........................................                ................                                                ",
"        ................................................................................................                        ",
"        ................................................................................................                        ",
"        ................................................................................................                        ",
"        ................................................................................................                        ",
"        ................................................................................................                        ",
"        ................................................................................................                        ",
"        ................................................................................................                        ",
"        ................................................................................................                        ",
"XXXXXXXXXXXXXXXXXXXXXXXX................XXXXXXXX........XXXXXXXXXXXXXXXXXXXXXXXXXXXXXXXX........XXXXXXXX                        ",
"XXXXXXXXXXXXXXXXXXXXXXXX................XXXXXXXX........XXXXXXXXXXXXXXXXXXXXXXXXXXXXXXXX........XXXXXXXX                        ",
"XXXXXXXXXXXXXXXXXXXXXXXX................XXXXXXXX........XXXXXXXXXXXXXXXXXXXXXXXXXXXXXXXX........XXXXXXXX                        ",
"XXXXXXXXXXXXXXXXXXXXXXXX................XXXXXXXX........XXXXXXXXXXXXXXXXXXXXXXXXXXXXXXXX........XXXXXXXX                        ",
"XXXXXXXXXXXXXXXXXXXXXXXX................XXXXXXXX........XXXXXXXXXXXXXXXXXXXXXXXXXXXXXXXX........XXXXXXXX                        ",
"XXXXXXXXXXXXXXXXXXXXXXXX................XXXXXXXX........XXXXXXXXXXXXXXXXXXXXXXXXXXXXXXXX........XXXXXXXX                        ",
"XXXXXXXXXXXXXXXXXXXXXXXX................XXXXXXXX........XXXXXXXXXXXXXXXXXXXXXXXXXXXXXXXX........XXXXXXXX                        ",
"XXXXXXXXXXXXXXXXXXXXXXXX................XXXXXXXX........XXXXXXXXXXXXXXXXXXXXXXXXXXXXXXXX........XXXXXXXX                        "
};
