/* XPM */
static char *coins[] = {
/* columns rows colors chars-per-pixel */
"64 64 6 1",
"  c #222222",
". c #483B3A",
"X c #775C55",
"o c #EE8E2E",
"O c #FACB3E",
"+ c #FDF7ED",
/* pixels */
"            ....                ............    ....            ",
"            ....                ............    ....            ",
"            ....                ............    ....            ",
"            ....                ............    ....            ",
"    ........................................................XXXX",
"    ........................................................XXXX",
"    ........................................................XXXX",
"    ........................................................XXXX",
"............................................................XXXX",
"............................................................XXXX",
"............................................................XXXX",
"............................................................XXXX",
"............................................................XXXX",
"............................................................XXXX",
"............................................................XXXX",
"............................................................XXXX",
"    ........................................................XXXX",
"    ........................................................XXXX",
"    ........................................................XXXX",
"    ........................................................XXXX",
"............................oooo++++........................XXXX",
"............................oooo++++........................XXXX",
"............................oooo++++........................XXXX",
"............................oooo++++........................XXXX",
"    ....................ooooOOOOOOOO++++........................",
"    ....................ooooOOOOOOOO++++........................",
"    ....................ooooOOOOOOOO++++........................",
"    ....................ooooOOOOOOOO++++........................",
"    ................ooooOOOOOOOOOOOOOOOO++++................XXXX",
"    ................ooooOOOOOOOOOOOOOOOO++++................XXXX",
"    ................ooooOOOOOOOOOOOOOOOO++++................XXXX",
"    ................ooooOOOOOOOOOOOOOOOO++++................XXXX",
"    ................ooooOOOOOOOOOOOOOOOO++++....................",
"    ................ooooOOOOOOOOOOOOOOOO++++....................",
"    ................ooooOOOOOOOOOOOOOOOO++++....................",
"    ................ooooOOOOOOOOOOOOOOOO++++....................",
"....................ooooOOOOOOOOOOOOOOOO++++................XXXX",
"....................ooooOOOOOOOOOOOOOOOO++++................XXXX",
"....................ooooOOOOOOOOOOOOOOOO++++................XXXX",
"....................ooooOOOOOOOOOOOOOOOO++++................XXXX",
"........................ooooOOOOOOOO++++....................XXXX",
"........................ooooOOOOOOOO++++....................XXXX",
"........................ooooOOOOOOOO++++....................XXXX",
"........................ooooOOOOOOOO++++....................XXXX",
"    ........................oooo++++............................",
"    ........................oooo++++............................",
"    ........................oooo++++............................",
"    ........................oooo++++............................",
"    ............................................................",
"    ............................................................",
"    ............................................................",
"    ............................................................",
"    ........................................................XXXX",
"    ........................................................XXXX",
"    ........................................................XXXX",
"    ........................................................XXXX",
"    ........................................................XXXX",
"    ........................................................XXXX",
"    ........................................................XXXX",
"    ........................................................XXXX",
"XXXXXXXXXXXX........XXXX....XXXXXXXXXXXXXXXX....XXXXXXXXXXXXXXXX",
"XXXXXXXXXXXX........XXXX....XXXXXXXXXXXXXXXX....XXXXXXXXXXXXXXXX",
"XXXXXXXXXXXX........XXXX....XXXXXXXXXXXXXXXX....XXXXXXXXXXXXXXXX",
"XXXXXXXXXXXX........XXXX....XXXXXXXXXXXXXXXX....XXXXXXXXXXXXXXXX"
};
