/* XPM */
static char *plays[] = {
/* columns rows colors chars-per-pixel */
"64 64 8 1",
"  c #222222",
". c #483B3A",
"X c #775C55",
"o c #417089",
"O c #72D6CE",
"+ c #DA4E38",
"@ c #EE8E2E",
"# c #FDF7ED",
/* pixels */
"            ....                ............    ....            ",
"            ....                ............    ....            ",
"            ....                ............    ....            ",
"            ....                ............    ....            ",
"    ........................................................XXXX",
"    ........................................................XXXX",
"    ........................................................XXXX",
"    ........................................................XXXX",
"............................................................XXXX",
"............................................................XXXX",
"............................................................XXXX",
"............................................................XXXX",
"............................................................XXXX",
"............................................................XXXX",
"............................................................XXXX",
"............................................................XXXX",
"    ........................................................XXXX",
"    ........................................................XXXX",
"    ..................          ............................XXXX",
"    ..................          ............................XXXX",
"....................  ++@@@@@@@@  ..........................XXXX",
"....................  ++@@@@@@@@  ..........................XXXX",
"..................  ++  ++++@@@@@@  ........................XXXX",
"..................  ++  ++++@@@@@@  ........................XXXX",
"    ............  ++  ..  ++++@@@@  ............................",
"    ............  ++  ..  ++++@@@@  ............................",
"    ..............  ..      ++++          ......................",
"    ..............  ..      ++++          ......................",
"    ..................  OOOOOOOOOOOO####  ..................XXXX",
"    ..................  OOOOOOOOOOOO####  ..................XXXX",
"    ..................  OOOOoooooooooooo      ..............XXXX",
"    ..................  OOOOoooooooooooo      ..............XXXX",
"    ..................  OOOOooOOOOOOOOOO####  ..................",
"    ..................  OOOOooOOOOOOOOOO####  ..................",
"    ..................  OOOOooOOooOOooOOoo##  ..................",
"    ..................  OOOOooOOooOOooOOoo##  ..................",
"......................  OOOOooOOooOOooOOoo##  ..............XXXX",
"......................  OOOOooOOooOOooOOoo##  ..............XXXX",
"......................  OOOOooOOooOOooOOoo##  ..............XXXX",
"......................  OOOOooOOooOOooOOoo##  ..............XXXX",
"......................  OOOOooOOOOOOOOOO####  ..............XXXX",
"......................  OOOOooOOOOOOOOOO####  ..............XXXX",
"......................  OOOOoooooooooooo      ..............XXXX",
"......................  OOOOoooooooooooo      ..............XXXX",
"    ..................  OOOOOOOOOOOOOO##  ......................",
"    ..................  OOOOOOOOOOOOOO##  ......................",
"    ..................  ooooooooooooooOO  ......................",
"    ..................  ooooooooooooooOO  ......................",
"    ..................  OOOOOOOOOOOOOO##  ......................",
"    ..................  OOOOOOOOOOOOOO##  ......................",
"    ..................  OOOOOOOOOOOOOO##  ......................",
"    ..................  OOOOOOOOOOOOOO##  ......................",
"    ..................  oooo        oooo  ..................XXXX",
"    ..................  oooo        oooo  ..................XXXX",
"    ..................      ........      ..................XXXX",
"    ..................      ........      ..................XXXX",
"    ........................................................XXXX",
"    ........................................................XXXX",
"    ........................................................XXXX",
"    ........................................................XXXX",
"XXXXXXXXXXXX........XXXX....XXXXXXXXXXXXXXXX....XXXXXXXXXXXXXXXX",
"XXXXXXXXXXXX........XXXX....XXXXXXXXXXXXXXXX....XXXXXXXXXXXXXXXX",
"XXXXXXXXXXXX........XXXX....XXXXXXXXXXXXXXXX....XXXXXXXXXXXXXXXX",
"XXXXXXXXXXXX........XXXX....XXXXXXXXXXXXXXXX....XXXXXXXXXXXXXXXX"
};
