/* XPM */
static char *walls[] = {
/* columns rows colors chars-per-pixel */
"64 64 6 1",
"  c #21141B",
". c #23151D",
"X c #222222",
"o c #2A2A3A",
"O c #483B3A",
"+ c #775C55",
/* pixels */
"++++oooo    OOOOOOOOXXXXOOOOOOOOOOOOOOOOXXXXOOOOOOOO    oooo++++",
"++++oooo    OOOOOOOOXXXXOOOOOOOOOOOOOOOOXXXXOOOOOOOO    oooo++++",
"++++oooo    OOOOOOOOXXXXOOOOOOOOOOOOOOOOXXXXOOOOOOOO    oooo++++",
"++++oooo    OOOOOOOOXXXXOOOOOOOOOOOOOOOOXXXXOOOOOOOO    oooo++++",
"OOOOoooo    OOOOOOOOXXXXOOOOOOOOOOOOOOOOXXXXOOOOOOOO    ooooOOOO",
"OOOOoooo    OOOOOOOOXXXXOOOOOOOOOOOOOOOOXXXXOOOOOOOO    ooooOOOO",
"OOOOoooo    OOOOOOOOXXXXOOOOOOOOOOOOOOOOXXXXOOOOOOOO    ooooOOOO",
"OOOOoooo    OOOOOOOOXXXXOOOOOOOOOOOOOOOOXXXXOOOOOOOO    ooooOOOO",
"OOOOoooo        ++++XXXXOOOOOOOOOOOOOOOOXXXX++++....    ooooOOOO",
"OOOOoooo        ++++XXXXOOOOOOOOOOOOOOOOXXXX++++....    ooooOOOO",
"OOOOoooo        ++++XXXXOOOOOOOOOOOOOOOOXXXX++++....    ooooOOOO",
"OOOOoooo        ++++XXXXOOOOOOOOOOOOOOOOXXXX++++....    ooooOOOO",
"XXXXXXXX    OOOO    OOOO++++++++++++++++OOOO    OOOO    XXXXXXXX",
"XXXXXXXX    OOOO    OOOO++++++++++++++++OOOO    OOOO    XXXXXXXX",
"XXXXXXXX    OOOO    OOOO++++++++++++++++OOOO    OOOO    XXXXXXXX",
"XXXXXXXX    OOOO    OOOO++++++++++++++++OOOO    OOOO    XXXXXXXX",
"++++oooo    OOOOOOOO....                ....OOOOOOOO    oooo++++",
"++++oooo    OOOOOOOO....                ....OOOOOOOO    oooo++++",
"++++oooo    OOOOOOOO....                ....OOOOOOOO    oooo++++",
"++++oooo    OOOOOOOO....                ....OOOOOOOO    oooo++++",
"OOOOoooo    OOOOOOOOXXXXOOOOOOOOOOOOOOOOXXXXOOOOOOOO    ooooOOOO",
"OOOOoooo    OOOOOOOOXXXXOOOOOOOOOOOOOOOOXXXXOOOOOOOO    ooooOOOO",
"OOOOoooo    OOOOOOOOXXXXOOOOOOOOOOOOOOOOXXXXOOOOOOOO    ooooOOOO",
"OOOOoooo    OOOOOOOOXXXXOOOOOOOOOOOOOOOOXXXXOOOOOOOO    ooooOOOO",
"OOOOoooo    OOOOOOOOXXXXOOOOOOOOOOOOOOOOXXXXOOOOOOOO    ooooOOOO",
"OOOOoooo    OOOOOOOOXXXXOOOOOOOOOOOOOOOOXXXXOOOOOOOO    ooooOOOO",
"OOOOoooo    OOOOOOOOXXXXOOOOOOOOOOOOOOOOXXXXOOOOOOOO    ooooOOOO",
"OOOOoooo    OOOOOOOOXXXXOOOOOOOOOOOOOOOOXXXXOOOOOOOO    ooooOOOO",
"XXXXXXXX    OOOOOOOOXXXXOOOOOOOOOOOOOOOOXXXXOOOOOOOO    XXXXXXXX",
"XXXXXXXX    OOOOOOOOXXXXOOOOOOOOOOOOOOOOXXXXOOOOOOOO    XXXXXXXX",
"XXXXXXXX    OOOOOOOOXXXXOOOOOOOOOOOOOOOOXXXXOOOOOOOO    XXXXXXXX",
"XXXXXXXX    OOOOOOOOXXXXOOOOOOOOOOOOOOOOXXXXOOOOOOOO    XXXXXXXX",
"++++oooo....OOOOOOOOXXXXOOOOOOOOOOOOOOOOXXXXOOOOOOOO    ooooXXXX",
"++++oooo....OOOOOOOOXXXXOOOOOOOOOOOOOOOOXXXXOOOOOOOO    ooooXXXX",
"++++oooo....OOOOOOOOXXXXOOOOOOOOOOOOOOOOXXXXOOOOOOOO    ooooXXXX",
"++++oooo....OOOOOOOOXXXXOOOOOOOOOOOOOOOOXXXXOOOOOOOO    ooooXXXX",
"OOOOoooo    ....++++XXXXOOOOOOOOOOOOOOOOXXXX++++        ooooOOOO",
"OOOOoooo    ....++++XXXXOOOOOOOOOOOOOOOOXXXX++++        ooooOOOO",
"OOOOoooo    ....++++XXXXOOOOOOOOOOOOOOOOXXXX++++        ooooOOOO",
"OOOOoooo    ....++++XXXXOOOOOOOOOOOOOOOOXXXX++++        ooooOOOO",
"OOOOoooo    OOOO    OOOO++++++++++++++++OOOO    OOOO    ooooOOOO",
"OOOOoooo    OOOO    OOOO++++++++++++++++OOOO    OOOO    ooooOOOO",
"OOOOoooo    OOOO    OOOO++++++++++++++++OOOO    OOOO    ooooOOOO",
"OOOOoooo    OOOO    OOOO++++++++++++++++OOOO    OOOO    ooooOOOO",
"XXXXXXXX    OOOOOOOO....                ....OOOOOOOO    XXXXXXXX",
"XXXXXXXX    OOOOOOOO....                ....OOOOOOOO    XXXXXXXX",
"XXXXXXXX    OOOOOOOO....                ....OOOOOOOO    XXXXXXXX",
"XXXXXXXX    OOOOOOOO....                ....OOOOOOOO    XXXXXXXX",
"++++oooo    OOOOOOOOXXXXOOOOOOOOOOOOOOOOXXXXOOOOOOOO    oooo++++",
"++++oooo    OOOOOOOOXXXXOOOOOOOOOOOOOOOOXXXXOOOOOOOO    oooo++++",
"++++oooo    OOOOOOOOXXXXOOOOOOOOOOOOOOOOXXXXOOOOOOOO    oooo++++",
"++++oooo    OOOOOOOOXXXXOOOOOOOOOOOOOOOOXXXXOOOOOOOO    oooo++++",
"OOOOoooo    OOOOOOOOXXXXOOOOOOOOOOOOOOOOXXXXOOOOOOOO    ooooOOOO",
"OOOOoooo    OOOOOOOOXXXXOOOOOOOOOOOOOOOOXXXXOOOOOOOO    ooooOOOO",
"OOOOoooo    OOOOOOOOXXXXOOOOOOOOOOOOOOOOXXXXOOOOOOOO    ooooOOOO",
"OOOOoooo    OOOOOOOOXXXXOOOOOOOOOOOOOOOOXXXXOOOOOOOO    ooooOOOO",
"OOOOoooo....OOOOOOOOXXXXOOOOOOOOOOOOOOOOXXXXOOOOOOOO....ooooOOOO",
"OOOOoooo....OOOOOOOOXXXXOOOOOOOOOOOOOOOOXXXXOOOOOOOO....ooooOOOO",
"OOOOoooo....OOOOOOOOXXXXOOOOOOOOOOOOOOOOXXXXOOOOOOOO....ooooOOOO",
"OOOOoooo....OOOOOOOOXXXXOOOOOOOOOOOOOOOOXXXXOOOOOOOO....ooooOOOO",
"XXXX    XXXX    ++++XXXXOOOOOOOOOOOOOOOOXXXX++++    XXXX    XXXX",
"XXXX    XXXX    ++++XXXXOOOOOOOOOOOOOOOOXXXX++++    XXXX    XXXX",
"XXXX    XXXX    ++++XXXXOOOOOOOOOOOOOOOOXXXX++++    XXXX    XXXX",
"XXXX    XXXX    ++++XXXXOOOOOOOOOOOOOOOOXXXX++++    XXXX    XXXX"
};
