/* XPM */
static char *coins[] = {
/* columns rows colors chars-per-pixel */
"128 128 6 1",
"  c #222222",
". c #483B3A",
"X c #775C55",
"o c #EE8E2E",
"O c #FACB3E",
"+ c #FDF7ED",
/* pixels */
"                        ........                                ........................        ........                        ",
"                        ........                                ........................        ........                        ",
"                        ........                                ........................        ........                        ",
"                        ........                                ........................        ........                        ",
"                        ........                                ........................        ........                        ",
"                        ........                                ........................        ........                        ",
"                        ........                                ........................        ........                        ",
"                        ........                                ........................        ........                        ",
"        ................................................................................................................XXXXXXXX",
"        ................................................................................................................XXXXXXXX",
"        ................................................................................................................XXXXXXXX",
"        ................................................................................................................XXXXXXXX",
"        ................................................................................................................XXXXXXXX",
"        ................................................................................................................XXXXXXXX",
"        ................................................................................................................XXXXXXXX",
"        ................................................................................................................XXXXXXXX",
"........................................................................................................................XXXXXXXX",
"........................................................................................................................XXXXXXXX",
"........................................................................................................................XXXXXXXX",
"........................................................................................................................XXXXXXXX",
"........................................................................................................................XXXXXXXX",
"........................................................................................................................XXXXXXXX",
"........................................................................................................................XXXXXXXX",
"........................................................................................................................XXXXXXXX",
"........................................................................................................................XXXXXXXX",
"........................................................................................................................XXXXXXXX",
"........................................................................................................................XXXXXXXX",
"........................................................................................................................XXXXXXXX",
"........................................................................................................................XXXXXXXX",
"........................................................................................................................XXXXXXXX",
"........................................................................................................................XXXXXXXX",
"........................................................................................................................XXXXXXXX",
"        ................................................................................................................XXXXXXXX",
"        ................................................................................................................XXXXXXXX",
"        ................................................................................................................XXXXXXXX",
"        ................................................................................................................XXXXXXXX",
"        ................................................................................................................XXXXXXXX",
"        ................................................................................................................XXXXXXXX",
"        ................................................................................................................XXXXXXXX",
"        ................................................................................................................XXXXXXXX",
"........................................................oooooooo++++++++................................................XXXXXXXX",
"........................................................oooooooo++++++++................................................XXXXXXXX",
"........................................................oooooooo++++++++................................................XXXXXXXX",
"........................................................oooooooo++++++++................................................XXXXXXXX",
"........................................................oooooooo++++++++................................................XXXXXXXX",
"........................................................oooooooo++++++++................................................XXXXXXXX",
"........................................................oooooooo++++++++................................................XXXXXXXX",
"........................................................oooooooo++++++++................................................XXXXXXXX",
"        ........................................ooooooooOOOOOOOOOOOOOOOO++++++++................................................",
"        ........................................ooooooooOOOOOOOOOOOOOOOO++++++++................................................",
"        ........................................ooooooooOOOOOOOOOOOOOOOO++++++++................................................",
"        ........................................ooooooooOOOOOOOOOOOOOOOO++++++++................................................",
"        ........................................ooooooooOOOOOOOOOOOOOOOO++++++++................................................",
"        ........................................ooooooooOOOOOOOOOOOOOOOO++++++++................................................",
"        ........................................ooooooooOOOOOOOOOOOOOOOO++++++++................................................",
"        ........................................ooooooooOOOOOOOOOOOOOOOO++++++++................................................",
"        ................................ooooooooOOOOOOOOOOOOOOOOOOOOOOOOOOOOOOOO++++++++................................XXXXXXXX",
"        ................................ooooooooOOOOOOOOOOOOOOOOOOOOOOOOOOOOOOOO++++++++................................XXXXXXXX",
"        ................................ooooooooOOOOOOOOOOOOOOOOOOOOOOOOOOOOOOOO++++++++................................XXXXXXXX",
"        ................................ooooooooOOOOOOOOOOOOOOOOOOOOOOOOOOOOOOOO++++++++................................XXXXXXXX",
"        ................................ooooooooOOOOOOOOOOOOOOOOOOOOOOOOOOOOOOOO++++++++................................XXXXXXXX",
"        ................................ooooooooOOOOOOOOOOOOOOOOOOOOOOOOOOOOOOOO++++++++................................XXXXXXXX",
"        ................................ooooooooOOOOOOOOOOOOOOOOOOOOOOOOOOOOOOOO++++++++................................XXXXXXXX",
"        ................................ooooooooOOOOOOOOOOOOOOOOOOOOOOOOOOOOOOOO++++++++................................XXXXXXXX",
"        ................................ooooooooOOOOOOOOOOOOOOOOOOOOOOOOOOOOOOOO++++++++........................................",
"        ................................ooooooooOOOOOOOOOOOOOOOOOOOOOOOOOOOOOOOO++++++++........................................",
"        ................................ooooooooOOOOOOOOOOOOOOOOOOOOOOOOOOOOOOOO++++++++........................................",
"        ................................ooooooooOOOOOOOOOOOOOOOOOOOOOOOOOOOOOOOO++++++++........................................",
"        ................................ooooooooOOOOOOOOOOOOOOOOOOOOOOOOOOOOOOOO++++++++........................................",
"        ................................ooooooooOOOOOOOOOOOOOOOOOOOOOOOOOOOOOOOO++++++++........................................",
"        ................................ooooooooOOOOOOOOOOOOOOOOOOOOOOOOOOOOOOOO++++++++........................................",
"        ................................ooooooooOOOOOOOOOOOOOOOOOOOOOOOOOOOOOOOO++++++++........................................",
"........................................ooooooooOOOOOOOOOOOOOOOOOOOOOOOOOOOOOOOO++++++++................................XXXXXXXX",
"........................................ooooooooOOOOOOOOOOOOOOOOOOOOOOOOOOOOOOOO++++++++................................XXXXXXXX",
"........................................ooooooooOOOOOOOOOOOOOOOOOOOOOOOOOOOOOOOO++++++++................................XXXXXXXX",
"........................................ooooooooOOOOOOOOOOOOOOOOOOOOOOOOOOOOOOOO++++++++................................XXXXXXXX",
"........................................ooooooooOOOOOOOOOOOOOOOOOOOOOOOOOOOOOOOO++++++++................................XXXXXXXX",
"........................................ooooooooOOOOOOOOOOOOOOOOOOOOOOOOOOOOOOOO++++++++................................XXXXXXXX",
"........................................ooooooooOOOOOOOOOOOOOOOOOOOOOOOOOOOOOOOO++++++++................................XXXXXXXX",
"........................................ooooooooOOOOOOOOOOOOOOOOOOOOOOOOOOOOOOOO++++++++................................XXXXXXXX",
"................................................ooooooooOOOOOOOOOOOOOOOO++++++++........................................XXXXXXXX",
"................................................ooooooooOOOOOOOOOOOOOOOO++++++++........................................XXXXXXXX",
"................................................ooooooooOOOOOOOOOOOOOOOO++++++++........................................XXXXXXXX",
"................................................ooooooooOOOOOOOOOOOOOOOO++++++++........................................XXXXXXXX",
"................................................ooooooooOOOOOOOOOOOOOOOO++++++++........................................XXXXXXXX",
"................................................ooooooooOOOOOOOOOOOOOOOO++++++++........................................XXXXXXXX",
"................................................ooooooooOOOOOOOOOOOOOOOO++++++++........................................XXXXXXXX",
"................................................ooooooooOOOOOOOOOOOOOOOO++++++++........................................XXXXXXXX",
"        ................................................oooooooo++++++++........................................................",
"        ................................................oooooooo++++++++........................................................",
"        ................................................oooooooo++++++++........................................................",
"        ................................................oooooooo++++++++........................................................",
"        ................................................oooooooo++++++++........................................................",
"        ................................................oooooooo++++++++........................................................",
"        ................................................oooooooo++++++++........................................................",
"        ................................................oooooooo++++++++........................................................",
"        ........................................................................................................................",
"        ........................................................................................................................",
"        ........................................................................................................................",
"        ........................................................................................................................",
"        ........................................................................................................................",
"        ........................................................................................................................",
"        ........................................................................................................................",
"        ........................................................................................................................",
"        ................................................................................................................XXXXXXXX",
"        ................................................................................................................XXXXXXXX",
"        ................................................................................................................XXXXXXXX",
"        ................................................................................................................XXXXXXXX",
"        ................................................................................................................XXXXXXXX",
"        ................................................................................................................XXXXXXXX",
"        ................................................................................................................XXXXXXXX",
"        ................................................................................................................XXXXXXXX",
"        ................................................................................................................XXXXXXXX",
"        ................................................................................................................XXXXXXXX",
"        ................................................................................................................XXXXXXXX",
"        ................................................................................................................XXXXXXXX",
"        ................................................................................................................XXXXXXXX",
"        ................................................................................................................XXXXXXXX",
"        ................................................................................................................XXXXXXXX",
"        ................................................................................................................XXXXXXXX",
"XXXXXXXXXXXXXXXXXXXXXXXX................XXXXXXXX........XXXXXXXXXXXXXXXXXXXXXXXXXXXXXXXX........XXXXXXXXXXXXXXXXXXXXXXXXXXXXXXXX",
"XXXXXXXXXXXXXXXXXXXXXXXX................XXXXXXXX........XXXXXXXXXXXXXXXXXXXXXXXXXXXXXXXX........XXXXXXXXXXXXXXXXXXXXXXXXXXXXXXXX",
"XXXXXXXXXXXXXXXXXXXXXXXX................XXXXXXXX........XXXXXXXXXXXXXXXXXXXXXXXXXXXXXXXX........XXXXXXXXXXXXXXXXXXXXXXXXXXXXXXXX",
"XXXXXXXXXXXXXXXXXXXXXXXX................XXXXXXXX........XXXXXXXXXXXXXXXXXXXXXXXXXXXXXXXX........XXXXXXXXXXXXXXXXXXXXXXXXXXXXXXXX",
"XXXXXXXXXXXXXXXXXXXXXXXX................XXXXXXXX........XXXXXXXXXXXXXXXXXXXXXXXXXXXXXXXX........XXXXXXXXXXXXXXXXXXXXXXXXXXXXXXXX",
"XXXXXXXXXXXXXXXXXXXXXXXX................XXXXXXXX........XXXXXXXXXXXXXXXXXXXXXXXXXXXXXXXX........XXXXXXXXXXXXXXXXXXXXXXXXXXXXXXXX",
"XXXXXXXXXXXXXXXXXXXXXXXX................XXXXXXXX........XXXXXXXXXXXXXXXXXXXXXXXXXXXXXXXX........XXXXXXXXXXXXXXXXXXXXXXXXXXXXXXXX",
"XXXXXXXXXXXXXXXXXXXXXXXX................XXXXXXXX........XXXXXXXXXXXXXXXXXXXXXXXXXXXXXXXX........XXXXXXXXXXXXXXXXXXXXXXXXXXXXXXXX"
};
