/* XPM */
static char *exits[] = {
/* columns rows colors chars-per-pixel */
"128 128 6 1",
"  c #222222",
". c #483B3A",
"X c #62232F",
"o c #775C55",
"O c #8F4029",
"+ c #C56025",
/* pixels */
"                        ........                                ........................        ........                        ",
"                        ........                                ........................        ........                        ",
"                        ........                                ........................        ........                        ",
"                        ........                                ........................        ........                        ",
"                        ........                                ........................        ........                        ",
"                        ........                                ........................        ........                        ",
"                        ........                                ........................        ........                        ",
"                        ........                                ........................        ........                        ",
"        ................................................................................................................oooooooo",
"        ................................................................................................................oooooooo",
"        ................................................................................................................oooooooo",
"        ................................................................................................................oooooooo",
"        ................................................................................................................oooooooo",
"        ................................................................................................................oooooooo",
"        ................................................................................................................oooooooo",
"        ................................................................................................................oooooooo",
"........................................................................................................................oooooooo",
"........................................................................................................................oooooooo",
"........................................................................................................................oooooooo",
"........................................................................................................................oooooooo",
"........................................................................................................................oooooooo",
"........................................................................................................................oooooooo",
"........................................................................................................................oooooooo",
"........................................................................................................................oooooooo",
"........................................................................................................................oooooooo",
"........................................................................................................................oooooooo",
"........................................................................................................................oooooooo",
"........................................................................................................................oooooooo",
"........................................................................................................................oooooooo",
"........................................................................................................................oooooooo",
"........................................................................................................................oooooooo",
"........................................................................................................................oooooooo",
"        ........................++++++++oooooooooooooooooooooooooooooooooooooooooooooooo++++++++........................oooooooo",
"        ........................++++++++oooooooooooooooooooooooooooooooooooooooooooooooo++++++++........................oooooooo",
"        ........................++++++++oooooooooooooooooooooooooooooooooooooooooooooooo++++++++........................oooooooo",
"        ........................++++++++oooooooooooooooooooooooooooooooooooooooooooooooo++++++++........................oooooooo",
"        ........................++++++++oooooooooooooooooooooooooooooooooooooooooooooooo++++++++........................oooooooo",
"        ........................++++++++oooooooooooooooooooooooooooooooooooooooooooooooo++++++++........................oooooooo",
"        ........................++++++++oooooooooooooooooooooooooooooooooooooooooooooooo++++++++........................oooooooo",
"        ........................++++++++oooooooooooooooooooooooooooooooooooooooooooooooo++++++++........................oooooooo",
"................oooooooooooooooo++++++++        ++++++++++++++++++++++++++++++++oooooooo++++++++oooooooooooooooo........oooooooo",
"................oooooooooooooooo++++++++        ++++++++++++++++++++++++++++++++oooooooo++++++++oooooooooooooooo........oooooooo",
"................oooooooooooooooo++++++++        ++++++++++++++++++++++++++++++++oooooooo++++++++oooooooooooooooo........oooooooo",
"................oooooooooooooooo++++++++        ++++++++++++++++++++++++++++++++oooooooo++++++++oooooooooooooooo........oooooooo",
"................oooooooooooooooo++++++++        ++++++++++++++++++++++++++++++++oooooooo++++++++oooooooooooooooo........oooooooo",
"................oooooooooooooooo++++++++        ++++++++++++++++++++++++++++++++oooooooo++++++++oooooooooooooooo........oooooooo",
"................oooooooooooooooo++++++++        ++++++++++++++++++++++++++++++++oooooooo++++++++oooooooooooooooo........oooooooo",
"................oooooooooooooooo++++++++        ++++++++++++++++++++++++++++++++oooooooo++++++++oooooooooooooooo........oooooooo",
"        oooooooooooooooo        ++++++++                                                ++++++++oooooooo        oooooooo........",
"        oooooooooooooooo        ++++++++                                                ++++++++oooooooo        oooooooo........",
"        oooooooooooooooo        ++++++++                                                ++++++++oooooooo        oooooooo........",
"        oooooooooooooooo        ++++++++                                                ++++++++oooooooo        oooooooo........",
"        oooooooooooooooo        ++++++++                                                ++++++++oooooooo        oooooooo........",
"        oooooooooooooooo        ++++++++                                                ++++++++oooooooo        oooooooo........",
"        oooooooooooooooo        ++++++++                                                ++++++++oooooooo        oooooooo........",
"        oooooooooooooooo        ++++++++                                                ++++++++oooooooo        oooooooo........",
"                oooooooo        ++++++++        ++++++++++++++++++++++++++++++++        ++++++++                        oooooooo",
"                oooooooo        ++++++++        ++++++++++++++++++++++++++++++++        ++++++++                        oooooooo",
"                oooooooo        ++++++++        ++++++++++++++++++++++++++++++++        ++++++++                        oooooooo",
"                oooooooo        ++++++++        ++++++++++++++++++++++++++++++++        ++++++++                        oooooooo",
"                oooooooo        ++++++++        ++++++++++++++++++++++++++++++++        ++++++++                        oooooooo",
"                oooooooo        ++++++++        ++++++++++++++++++++++++++++++++        ++++++++                        oooooooo",
"                oooooooo        ++++++++        ++++++++++++++++++++++++++++++++        ++++++++                        oooooooo",
"                oooooooo        ++++++++        ++++++++++++++++++++++++++++++++        ++++++++                        oooooooo",
"                                OOOOOOOO                                                OOOOOOOO                        ........",
"                                OOOOOOOO                                                OOOOOOOO                        ........",
"                                OOOOOOOO                                                OOOOOOOO                        ........",
"                                OOOOOOOO                                                OOOOOOOO                        ........",
"                                OOOOOOOO                                                OOOOOOOO                        ........",
"                                OOOOOOOO                                                OOOOOOOO                        ........",
"                                OOOOOOOO                                                OOOOOOOO                        ........",
"                                OOOOOOOO                                                OOOOOOOO                        ........",
"........                        OOOOOOOO        OOOOOOOOOOOOOOOOOOOOOOOOOOOOOOOO        OOOOOOOO                        ........",
"........                        OOOOOOOO        OOOOOOOOOOOOOOOOOOOOOOOOOOOOOOOO        OOOOOOOO                        ........",
"........                        OOOOOOOO        OOOOOOOOOOOOOOOOOOOOOOOOOOOOOOOO        OOOOOOOO                        ........",
"........                        OOOOOOOO        OOOOOOOOOOOOOOOOOOOOOOOOOOOOOOOO        OOOOOOOO                        ........",
"........                        OOOOOOOO        OOOOOOOOOOOOOOOOOOOOOOOOOOOOOOOO        OOOOOOOO                        ........",
"........                        OOOOOOOO        OOOOOOOOOOOOOOOOOOOOOOOOOOOOOOOO        OOOOOOOO                        ........",
"........                        OOOOOOOO        OOOOOOOOOOOOOOOOOOOOOOOOOOOOOOOO        OOOOOOOO                        ........",
"........                        OOOOOOOO        OOOOOOOOOOOOOOOOOOOOOOOOOOOOOOOO        OOOOOOOO                        ........",
"........oooooooo                XXXXXXXX                                                XXXXXXXX                oooooooooooooooo",
"........oooooooo                XXXXXXXX                                                XXXXXXXX                oooooooooooooooo",
"........oooooooo                XXXXXXXX                                                XXXXXXXX                oooooooooooooooo",
"........oooooooo                XXXXXXXX                                                XXXXXXXX                oooooooooooooooo",
"........oooooooo                XXXXXXXX                                                XXXXXXXX                oooooooooooooooo",
"........oooooooo                XXXXXXXX                                                XXXXXXXX                oooooooooooooooo",
"........oooooooo                XXXXXXXX                                                XXXXXXXX                oooooooooooooooo",
"........oooooooo                XXXXXXXX                                                XXXXXXXX                oooooooooooooooo",
"        ........ooooooooooooooooXXXXXXXX        XXXXXXXXXXXXXXXXXXXXXXXXXXXXXXXX        XXXXXXXXoooooooooooooooo................",
"        ........ooooooooooooooooXXXXXXXX        XXXXXXXXXXXXXXXXXXXXXXXXXXXXXXXX        XXXXXXXXoooooooooooooooo................",
"        ........ooooooooooooooooXXXXXXXX        XXXXXXXXXXXXXXXXXXXXXXXXXXXXXXXX        XXXXXXXXoooooooooooooooo................",
"        ........ooooooooooooooooXXXXXXXX        XXXXXXXXXXXXXXXXXXXXXXXXXXXXXXXX        XXXXXXXXoooooooooooooooo................",
"        ........ooooooooooooooooXXXXXXXX        XXXXXXXXXXXXXXXXXXXXXXXXXXXXXXXX        XXXXXXXXoooooooooooooooo................",
"        ........ooooooooooooooooXXXXXXXX        XXXXXXXXXXXXXXXXXXXXXXXXXXXXXXXX        XXXXXXXXoooooooooooooooo................",
"        ........ooooooooooooooooXXXXXXXX        XXXXXXXXXXXXXXXXXXXXXXXXXXXXXXXX        XXXXXXXXoooooooooooooooo................",
"        ........ooooooooooooooooXXXXXXXX        XXXXXXXXXXXXXXXXXXXXXXXXXXXXXXXX        XXXXXXXXoooooooooooooooo................",
"        ........................oooooooooooooooooooooooooooooooooooooooooooooooooooooooooooooooo................................",
"        ........................oooooooooooooooooooooooooooooooooooooooooooooooooooooooooooooooo................................",
"        ........................oooooooooooooooooooooooooooooooooooooooooooooooooooooooooooooooo................................",
"        ........................oooooooooooooooooooooooooooooooooooooooooooooooooooooooooooooooo................................",
"        ........................oooooooooooooooooooooooooooooooooooooooooooooooooooooooooooooooo................................",
"        ........................oooooooooooooooooooooooooooooooooooooooooooooooooooooooooooooooo................................",
"        ........................oooooooooooooooooooooooooooooooooooooooooooooooooooooooooooooooo................................",
"        ........................oooooooooooooooooooooooooooooooooooooooooooooooooooooooooooooooo................................",
"        ................................................................................................................oooooooo",
"        ................................................................................................................oooooooo",
"        ................................................................................................................oooooooo",
"        ................................................................................................................oooooooo",
"        ................................................................................................................oooooooo",
"        ................................................................................................................oooooooo",
"        ................................................................................................................oooooooo",
"        ................................................................................................................oooooooo",
"        ................................................................................................................oooooooo",
"        ................................................................................................................oooooooo",
"        ................................................................................................................oooooooo",
"        ................................................................................................................oooooooo",
"        ................................................................................................................oooooooo",
"        ................................................................................................................oooooooo",
"        ................................................................................................................oooooooo",
"        ................................................................................................................oooooooo",
"oooooooooooooooooooooooo................oooooooo........oooooooooooooooooooooooooooooooo........oooooooooooooooooooooooooooooooo",
"oooooooooooooooooooooooo................oooooooo........oooooooooooooooooooooooooooooooo........oooooooooooooooooooooooooooooooo",
"oooooooooooooooooooooooo................oooooooo........oooooooooooooooooooooooooooooooo........oooooooooooooooooooooooooooooooo",
"oooooooooooooooooooooooo................oooooooo........oooooooooooooooooooooooooooooooo........oooooooooooooooooooooooooooooooo",
"oooooooooooooooooooooooo................oooooooo........oooooooooooooooooooooooooooooooo........oooooooooooooooooooooooooooooooo",
"oooooooooooooooooooooooo................oooooooo........oooooooooooooooooooooooooooooooo........oooooooooooooooooooooooooooooooo",
"oooooooooooooooooooooooo................oooooooo........oooooooooooooooooooooooooooooooo........oooooooooooooooooooooooooooooooo",
"oooooooooooooooooooooooo................oooooooo........oooooooooooooooooooooooooooooooo........oooooooooooooooooooooooooooooooo"
};
