/* XPM */
static char *plays[] = {
/* columns rows colors chars-per-pixel */
"128 128 8 1",
"  c #222222",
". c #483B3A",
"X c #775C55",
"o c #417089",
"O c #72D6CE",
"+ c #DA4E38",
"@ c #EE8E2E",
"# c #FDF7ED",
/* pixels */
"                        ........                                ........................        ........                        ",
"                        ........                                ........................        ........                        ",
"                        ........                                ........................        ........                        ",
"                        ........                                ........................        ........                        ",
"                        ........                                ........................        ........                        ",
"                        ........                                ........................        ........                        ",
"                        ........                                ........................        ........                        ",
"                        ........                                ........................        ........                        ",
"        ................................................................................................................XXXXXXXX",
"        ................................................................................................................XXXXXXXX",
"        ................................................................................................................XXXXXXXX",
"        ................................................................................................................XXXXXXXX",
"        ................................................................................................................XXXXXXXX",
"        ................................................................................................................XXXXXXXX",
"        ................................................................................................................XXXXXXXX",
"        ................................................................................................................XXXXXXXX",
"........................................................................................................................XXXXXXXX",
"........................................................................................................................XXXXXXXX",
"........................................................................................................................XXXXXXXX",
"........................................................................................................................XXXXXXXX",
"........................................................................................................................XXXXXXXX",
"........................................................................................................................XXXXXXXX",
"........................................................................................................................XXXXXXXX",
"........................................................................................................................XXXXXXXX",
"........................................................................................................................XXXXXXXX",
"........................................................................................................................XXXXXXXX",
"........................................................................................................................XXXXXXXX",
"........................................................................................................................XXXXXXXX",
"........................................................................................................................XXXXXXXX",
"........................................................................................................................XXXXXXXX",
"........................................................................................................................XXXXXXXX",
"........................................................................................................................XXXXXXXX",
"        ................................................................................................................XXXXXXXX",
"        ................................................................................................................XXXXXXXX",
"        ................................................................................................................XXXXXXXX",
"        ................................................................................................................XXXXXXXX",
"        ....................................                    ........................................................XXXXXXXX",
"        ....................................                    ........................................................XXXXXXXX",
"        ....................................                    ........................................................XXXXXXXX",
"        ....................................                    ........................................................XXXXXXXX",
"........................................    ++++@@@@@@@@@@@@@@@@    ....................................................XXXXXXXX",
"........................................    ++++@@@@@@@@@@@@@@@@    ....................................................XXXXXXXX",
"........................................    ++++@@@@@@@@@@@@@@@@    ....................................................XXXXXXXX",
"........................................    ++++@@@@@@@@@@@@@@@@    ....................................................XXXXXXXX",
"....................................    ++++    ++++++++@@@@@@@@@@@@    ................................................XXXXXXXX",
"....................................    ++++    ++++++++@@@@@@@@@@@@    ................................................XXXXXXXX",
"....................................    ++++    ++++++++@@@@@@@@@@@@    ................................................XXXXXXXX",
"....................................    ++++    ++++++++@@@@@@@@@@@@    ................................................XXXXXXXX",
"        ........................    ++++    ....    ++++++++@@@@@@@@    ........................................................",
"        ........................    ++++    ....    ++++++++@@@@@@@@    ........................................................",
"        ........................    ++++    ....    ++++++++@@@@@@@@    ........................................................",
"        ........................    ++++    ....    ++++++++@@@@@@@@    ........................................................",
"        ............................    ....            ++++++++                    ............................................",
"        ............................    ....            ++++++++                    ............................................",
"        ............................    ....            ++++++++                    ............................................",
"        ............................    ....            ++++++++                    ............................................",
"        ....................................    OOOOOOOOOOOOOOOOOOOOOOOO########    ....................................XXXXXXXX",
"        ....................................    OOOOOOOOOOOOOOOOOOOOOOOO########    ....................................XXXXXXXX",
"        ....................................    OOOOOOOOOOOOOOOOOOOOOOOO########    ....................................XXXXXXXX",
"        ....................................    OOOOOOOOOOOOOOOOOOOOOOOO########    ....................................XXXXXXXX",
"        ....................................    OOOOOOOOoooooooooooooooooooooooo            ............................XXXXXXXX",
"        ....................................    OOOOOOOOoooooooooooooooooooooooo            ............................XXXXXXXX",
"        ....................................    OOOOOOOOoooooooooooooooooooooooo            ............................XXXXXXXX",
"        ....................................    OOOOOOOOoooooooooooooooooooooooo            ............................XXXXXXXX",
"        ....................................    OOOOOOOOooooOOOOOOOOOOOOOOOOOOOO########    ....................................",
"        ....................................    OOOOOOOOooooOOOOOOOOOOOOOOOOOOOO########    ....................................",
"        ....................................    OOOOOOOOooooOOOOOOOOOOOOOOOOOOOO########    ....................................",
"        ....................................    OOOOOOOOooooOOOOOOOOOOOOOOOOOOOO########    ....................................",
"        ....................................    OOOOOOOOooooOOOOooooOOOOooooOOOOoooo####    ....................................",
"        ....................................    OOOOOOOOooooOOOOooooOOOOooooOOOOoooo####    ....................................",
"        ....................................    OOOOOOOOooooOOOOooooOOOOooooOOOOoooo####    ....................................",
"        ....................................    OOOOOOOOooooOOOOooooOOOOooooOOOOoooo####    ....................................",
"............................................    OOOOOOOOooooOOOOooooOOOOooooOOOOoooo####    ............................XXXXXXXX",
"............................................    OOOOOOOOooooOOOOooooOOOOooooOOOOoooo####    ............................XXXXXXXX",
"............................................    OOOOOOOOooooOOOOooooOOOOooooOOOOoooo####    ............................XXXXXXXX",
"............................................    OOOOOOOOooooOOOOooooOOOOooooOOOOoooo####    ............................XXXXXXXX",
"............................................    OOOOOOOOooooOOOOooooOOOOooooOOOOoooo####    ............................XXXXXXXX",
"............................................    OOOOOOOOooooOOOOooooOOOOooooOOOOoooo####    ............................XXXXXXXX",
"............................................    OOOOOOOOooooOOOOooooOOOOooooOOOOoooo####    ............................XXXXXXXX",
"............................................    OOOOOOOOooooOOOOooooOOOOooooOOOOoooo####    ............................XXXXXXXX",
"............................................    OOOOOOOOooooOOOOOOOOOOOOOOOOOOOO########    ............................XXXXXXXX",
"............................................    OOOOOOOOooooOOOOOOOOOOOOOOOOOOOO########    ............................XXXXXXXX",
"............................................    OOOOOOOOooooOOOOOOOOOOOOOOOOOOOO########    ............................XXXXXXXX",
"............................................    OOOOOOOOooooOOOOOOOOOOOOOOOOOOOO########    ............................XXXXXXXX",
"............................................    OOOOOOOOoooooooooooooooooooooooo            ............................XXXXXXXX",
"............................................    OOOOOOOOoooooooooooooooooooooooo            ............................XXXXXXXX",
"............................................    OOOOOOOOoooooooooooooooooooooooo            ............................XXXXXXXX",
"............................................    OOOOOOOOoooooooooooooooooooooooo            ............................XXXXXXXX",
"        ....................................    OOOOOOOOOOOOOOOOOOOOOOOOOOOO####    ............................................",
"        ....................................    OOOOOOOOOOOOOOOOOOOOOOOOOOOO####    ............................................",
"        ....................................    OOOOOOOOOOOOOOOOOOOOOOOOOOOO####    ............................................",
"        ....................................    OOOOOOOOOOOOOOOOOOOOOOOOOOOO####    ............................................",
"        ....................................    ooooooooooooooooooooooooooooOOOO    ............................................",
"        ....................................    ooooooooooooooooooooooooooooOOOO    ............................................",
"        ....................................    ooooooooooooooooooooooooooooOOOO    ............................................",
"        ....................................    ooooooooooooooooooooooooooooOOOO    ............................................",
"        ....................................    OOOOOOOOOOOOOOOOOOOOOOOOOOOO####    ............................................",
"        ....................................    OOOOOOOOOOOOOOOOOOOOOOOOOOOO####    ............................................",
"        ....................................    OOOOOOOOOOOOOOOOOOOOOOOOOOOO####    ............................................",
"        ....................................    OOOOOOOOOOOOOOOOOOOOOOOOOOOO####    ............................................",
"        ....................................    OOOOOOOOOOOOOOOOOOOOOOOOOOOO####    ............................................",
"        ....................................    OOOOOOOOOOOOOOOOOOOOOOOOOOOO####    ............................................",
"        ....................................    OOOOOOOOOOOOOOOOOOOOOOOOOOOO####    ............................................",
"        ....................................    OOOOOOOOOOOOOOOOOOOOOOOOOOOO####    ............................................",
"        ....................................    oooooooo                oooooooo    ....................................XXXXXXXX",
"        ....................................    oooooooo                oooooooo    ....................................XXXXXXXX",
"        ....................................    oooooooo                oooooooo    ....................................XXXXXXXX",
"        ....................................    oooooooo                oooooooo    ....................................XXXXXXXX",
"        ....................................            ................            ....................................XXXXXXXX",
"        ....................................            ................            ....................................XXXXXXXX",
"        ....................................            ................            ....................................XXXXXXXX",
"        ....................................            ................            ....................................XXXXXXXX",
"        ................................................................................................................XXXXXXXX",
"        ................................................................................................................XXXXXXXX",
"        ................................................................................................................XXXXXXXX",
"        ................................................................................................................XXXXXXXX",
"        ................................................................................................................XXXXXXXX",
"        ................................................................................................................XXXXXXXX",
"        ................................................................................................................XXXXXXXX",
"        ................................................................................................................XXXXXXXX",
"XXXXXXXXXXXXXXXXXXXXXXXX................XXXXXXXX........XXXXXXXXXXXXXXXXXXXXXXXXXXXXXXXX........XXXXXXXXXXXXXXXXXXXXXXXXXXXXXXXX",
"XXXXXXXXXXXXXXXXXXXXXXXX................XXXXXXXX........XXXXXXXXXXXXXXXXXXXXXXXXXXXXXXXX........XXXXXXXXXXXXXXXXXXXXXXXXXXXXXXXX",
"XXXXXXXXXXXXXXXXXXXXXXXX................XXXXXXXX........XXXXXXXXXXXXXXXXXXXXXXXXXXXXXXXX........XXXXXXXXXXXXXXXXXXXXXXXXXXXXXXXX",
"XXXXXXXXXXXXXXXXXXXXXXXX................XXXXXXXX........XXXXXXXXXXXXXXXXXXXXXXXXXXXXXXXX........XXXXXXXXXXXXXXXXXXXXXXXXXXXXXXXX",
"XXXXXXXXXXXXXXXXXXXXXXXX................XXXXXXXX........XXXXXXXXXXXXXXXXXXXXXXXXXXXXXXXX........XXXXXXXXXXXXXXXXXXXXXXXXXXXXXXXX",
"XXXXXXXXXXXXXXXXXXXXXXXX................XXXXXXXX........XXXXXXXXXXXXXXXXXXXXXXXXXXXXXXXX........XXXXXXXXXXXXXXXXXXXXXXXXXXXXXXXX",
"XXXXXXXXXXXXXXXXXXXXXXXX................XXXXXXXX........XXXXXXXXXXXXXXXXXXXXXXXXXXXXXXXX........XXXXXXXXXXXXXXXXXXXXXXXXXXXXXXXX",
"XXXXXXXXXXXXXXXXXXXXXXXX................XXXXXXXX........XXXXXXXXXXXXXXXXXXXXXXXXXXXXXXXX........XXXXXXXXXXXXXXXXXXXXXXXXXXXXXXXX"
};
