/* XPM */
static char *walls[] = {
/* columns rows colors chars-per-pixel */
"128 128 6 1",
"  c #21141B",
". c #23151D",
"X c #222222",
"o c #2A2A3A",
"O c #483B3A",
"+ c #775C55",
/* pixels */
"++++++++oooooooo        OOOOOOOOOOOOOOOOXXXXXXXXOOOOOOOOOOOOOOOOOOOOOOOOOOOOOOOOXXXXXXXXOOOOOOOOOOOOOOOO        oooooooo++++++++",
"++++++++oooooooo        OOOOOOOOOOOOOOOOXXXXXXXXOOOOOOOOOOOOOOOOOOOOOOOOOOOOOOOOXXXXXXXXOOOOOOOOOOOOOOOO        oooooooo++++++++",
"++++++++oooooooo        OOOOOOOOOOOOOOOOXXXXXXXXOOOOOOOOOOOOOOOOOOOOOOOOOOOOOOOOXXXXXXXXOOOOOOOOOOOOOOOO        oooooooo++++++++",
"++++++++oooooooo        OOOOOOOOOOOOOOOOXXXXXXXXOOOOOOOOOOOOOOOOOOOOOOOOOOOOOOOOXXXXXXXXOOOOOOOOOOOOOOOO        oooooooo++++++++",
"++++++++oooooooo        OOOOOOOOOOOOOOOOXXXXXXXXOOOOOOOOOOOOOOOOOOOOOOOOOOOOOOOOXXXXXXXXOOOOOOOOOOOOOOOO        oooooooo++++++++",
"++++++++oooooooo        OOOOOOOOOOOOOOOOXXXXXXXXOOOOOOOOOOOOOOOOOOOOOOOOOOOOOOOOXXXXXXXXOOOOOOOOOOOOOOOO        oooooooo++++++++",
"++++++++oooooooo        OOOOOOOOOOOOOOOOXXXXXXXXOOOOOOOOOOOOOOOOOOOOOOOOOOOOOOOOXXXXXXXXOOOOOOOOOOOOOOOO        oooooooo++++++++",
"++++++++oooooooo        OOOOOOOOOOOOOOOOXXXXXXXXOOOOOOOOOOOOOOOOOOOOOOOOOOOOOOOOXXXXXXXXOOOOOOOOOOOOOOOO        oooooooo++++++++",
"OOOOOOOOoooooooo        OOOOOOOOOOOOOOOOXXXXXXXXOOOOOOOOOOOOOOOOOOOOOOOOOOOOOOOOXXXXXXXXOOOOOOOOOOOOOOOO        ooooooooOOOOOOOO",
"OOOOOOOOoooooooo        OOOOOOOOOOOOOOOOXXXXXXXXOOOOOOOOOOOOOOOOOOOOOOOOOOOOOOOOXXXXXXXXOOOOOOOOOOOOOOOO        ooooooooOOOOOOOO",
"OOOOOOOOoooooooo        OOOOOOOOOOOOOOOOXXXXXXXXOOOOOOOOOOOOOOOOOOOOOOOOOOOOOOOOXXXXXXXXOOOOOOOOOOOOOOOO        ooooooooOOOOOOOO",
"OOOOOOOOoooooooo        OOOOOOOOOOOOOOOOXXXXXXXXOOOOOOOOOOOOOOOOOOOOOOOOOOOOOOOOXXXXXXXXOOOOOOOOOOOOOOOO        ooooooooOOOOOOOO",
"OOOOOOOOoooooooo        OOOOOOOOOOOOOOOOXXXXXXXXOOOOOOOOOOOOOOOOOOOOOOOOOOOOOOOOXXXXXXXXOOOOOOOOOOOOOOOO        ooooooooOOOOOOOO",
"OOOOOOOOoooooooo        OOOOOOOOOOOOOOOOXXXXXXXXOOOOOOOOOOOOOOOOOOOOOOOOOOOOOOOOXXXXXXXXOOOOOOOOOOOOOOOO        ooooooooOOOOOOOO",
"OOOOOOOOoooooooo        OOOOOOOOOOOOOOOOXXXXXXXXOOOOOOOOOOOOOOOOOOOOOOOOOOOOOOOOXXXXXXXXOOOOOOOOOOOOOOOO        ooooooooOOOOOOOO",
"OOOOOOOOoooooooo        OOOOOOOOOOOOOOOOXXXXXXXXOOOOOOOOOOOOOOOOOOOOOOOOOOOOOOOOXXXXXXXXOOOOOOOOOOOOOOOO        ooooooooOOOOOOOO",
"OOOOOOOOoooooooo                ++++++++XXXXXXXXOOOOOOOOOOOOOOOOOOOOOOOOOOOOOOOOXXXXXXXX++++++++........        ooooooooOOOOOOOO",
"OOOOOOOOoooooooo                ++++++++XXXXXXXXOOOOOOOOOOOOOOOOOOOOOOOOOOOOOOOOXXXXXXXX++++++++........        ooooooooOOOOOOOO",
"OOOOOOOOoooooooo                ++++++++XXXXXXXXOOOOOOOOOOOOOOOOOOOOOOOOOOOOOOOOXXXXXXXX++++++++........        ooooooooOOOOOOOO",
"OOOOOOOOoooooooo                ++++++++XXXXXXXXOOOOOOOOOOOOOOOOOOOOOOOOOOOOOOOOXXXXXXXX++++++++........        ooooooooOOOOOOOO",
"OOOOOOOOoooooooo                ++++++++XXXXXXXXOOOOOOOOOOOOOOOOOOOOOOOOOOOOOOOOXXXXXXXX++++++++........        ooooooooOOOOOOOO",
"OOOOOOOOoooooooo                ++++++++XXXXXXXXOOOOOOOOOOOOOOOOOOOOOOOOOOOOOOOOXXXXXXXX++++++++........        ooooooooOOOOOOOO",
"OOOOOOOOoooooooo                ++++++++XXXXXXXXOOOOOOOOOOOOOOOOOOOOOOOOOOOOOOOOXXXXXXXX++++++++........        ooooooooOOOOOOOO",
"OOOOOOOOoooooooo                ++++++++XXXXXXXXOOOOOOOOOOOOOOOOOOOOOOOOOOOOOOOOXXXXXXXX++++++++........        ooooooooOOOOOOOO",
"XXXXXXXXXXXXXXXX        OOOOOOOO        OOOOOOOO++++++++++++++++++++++++++++++++OOOOOOOO        OOOOOOOO        XXXXXXXXXXXXXXXX",
"XXXXXXXXXXXXXXXX        OOOOOOOO        OOOOOOOO++++++++++++++++++++++++++++++++OOOOOOOO        OOOOOOOO        XXXXXXXXXXXXXXXX",
"XXXXXXXXXXXXXXXX        OOOOOOOO        OOOOOOOO++++++++++++++++++++++++++++++++OOOOOOOO        OOOOOOOO        XXXXXXXXXXXXXXXX",
"XXXXXXXXXXXXXXXX        OOOOOOOO        OOOOOOOO++++++++++++++++++++++++++++++++OOOOOOOO        OOOOOOOO        XXXXXXXXXXXXXXXX",
"XXXXXXXXXXXXXXXX        OOOOOOOO        OOOOOOOO++++++++++++++++++++++++++++++++OOOOOOOO        OOOOOOOO        XXXXXXXXXXXXXXXX",
"XXXXXXXXXXXXXXXX        OOOOOOOO        OOOOOOOO++++++++++++++++++++++++++++++++OOOOOOOO        OOOOOOOO        XXXXXXXXXXXXXXXX",
"XXXXXXXXXXXXXXXX        OOOOOOOO        OOOOOOOO++++++++++++++++++++++++++++++++OOOOOOOO        OOOOOOOO        XXXXXXXXXXXXXXXX",
"XXXXXXXXXXXXXXXX        OOOOOOOO        OOOOOOOO++++++++++++++++++++++++++++++++OOOOOOOO        OOOOOOOO        XXXXXXXXXXXXXXXX",
"++++++++oooooooo        OOOOOOOOOOOOOOOO........                                ........OOOOOOOOOOOOOOOO        oooooooo++++++++",
"++++++++oooooooo        OOOOOOOOOOOOOOOO........                                ........OOOOOOOOOOOOOOOO        oooooooo++++++++",
"++++++++oooooooo        OOOOOOOOOOOOOOOO........                                ........OOOOOOOOOOOOOOOO        oooooooo++++++++",
"++++++++oooooooo        OOOOOOOOOOOOOOOO........                                ........OOOOOOOOOOOOOOOO        oooooooo++++++++",
"++++++++oooooooo        OOOOOOOOOOOOOOOO........                                ........OOOOOOOOOOOOOOOO        oooooooo++++++++",
"++++++++oooooooo        OOOOOOOOOOOOOOOO........                                ........OOOOOOOOOOOOOOOO        oooooooo++++++++",
"++++++++oooooooo        OOOOOOOOOOOOOOOO........                                ........OOOOOOOOOOOOOOOO        oooooooo++++++++",
"++++++++oooooooo        OOOOOOOOOOOOOOOO........                                ........OOOOOOOOOOOOOOOO        oooooooo++++++++",
"OOOOOOOOoooooooo        OOOOOOOOOOOOOOOOXXXXXXXXOOOOOOOOOOOOOOOOOOOOOOOOOOOOOOOOXXXXXXXXOOOOOOOOOOOOOOOO        ooooooooOOOOOOOO",
"OOOOOOOOoooooooo        OOOOOOOOOOOOOOOOXXXXXXXXOOOOOOOOOOOOOOOOOOOOOOOOOOOOOOOOXXXXXXXXOOOOOOOOOOOOOOOO        ooooooooOOOOOOOO",
"OOOOOOOOoooooooo        OOOOOOOOOOOOOOOOXXXXXXXXOOOOOOOOOOOOOOOOOOOOOOOOOOOOOOOOXXXXXXXXOOOOOOOOOOOOOOOO        ooooooooOOOOOOOO",
"OOOOOOOOoooooooo        OOOOOOOOOOOOOOOOXXXXXXXXOOOOOOOOOOOOOOOOOOOOOOOOOOOOOOOOXXXXXXXXOOOOOOOOOOOOOOOO        ooooooooOOOOOOOO",
"OOOOOOOOoooooooo        OOOOOOOOOOOOOOOOXXXXXXXXOOOOOOOOOOOOOOOOOOOOOOOOOOOOOOOOXXXXXXXXOOOOOOOOOOOOOOOO        ooooooooOOOOOOOO",
"OOOOOOOOoooooooo        OOOOOOOOOOOOOOOOXXXXXXXXOOOOOOOOOOOOOOOOOOOOOOOOOOOOOOOOXXXXXXXXOOOOOOOOOOOOOOOO        ooooooooOOOOOOOO",
"OOOOOOOOoooooooo        OOOOOOOOOOOOOOOOXXXXXXXXOOOOOOOOOOOOOOOOOOOOOOOOOOOOOOOOXXXXXXXXOOOOOOOOOOOOOOOO        ooooooooOOOOOOOO",
"OOOOOOOOoooooooo        OOOOOOOOOOOOOOOOXXXXXXXXOOOOOOOOOOOOOOOOOOOOOOOOOOOOOOOOXXXXXXXXOOOOOOOOOOOOOOOO        ooooooooOOOOOOOO",
"OOOOOOOOoooooooo        OOOOOOOOOOOOOOOOXXXXXXXXOOOOOOOOOOOOOOOOOOOOOOOOOOOOOOOOXXXXXXXXOOOOOOOOOOOOOOOO        ooooooooOOOOOOOO",
"OOOOOOOOoooooooo        OOOOOOOOOOOOOOOOXXXXXXXXOOOOOOOOOOOOOOOOOOOOOOOOOOOOOOOOXXXXXXXXOOOOOOOOOOOOOOOO        ooooooooOOOOOOOO",
"OOOOOOOOoooooooo        OOOOOOOOOOOOOOOOXXXXXXXXOOOOOOOOOOOOOOOOOOOOOOOOOOOOOOOOXXXXXXXXOOOOOOOOOOOOOOOO        ooooooooOOOOOOOO",
"OOOOOOOOoooooooo        OOOOOOOOOOOOOOOOXXXXXXXXOOOOOOOOOOOOOOOOOOOOOOOOOOOOOOOOXXXXXXXXOOOOOOOOOOOOOOOO        ooooooooOOOOOOOO",
"OOOOOOOOoooooooo        OOOOOOOOOOOOOOOOXXXXXXXXOOOOOOOOOOOOOOOOOOOOOOOOOOOOOOOOXXXXXXXXOOOOOOOOOOOOOOOO        ooooooooOOOOOOOO",
"OOOOOOOOoooooooo        OOOOOOOOOOOOOOOOXXXXXXXXOOOOOOOOOOOOOOOOOOOOOOOOOOOOOOOOXXXXXXXXOOOOOOOOOOOOOOOO        ooooooooOOOOOOOO",
"OOOOOOOOoooooooo        OOOOOOOOOOOOOOOOXXXXXXXXOOOOOOOOOOOOOOOOOOOOOOOOOOOOOOOOXXXXXXXXOOOOOOOOOOOOOOOO        ooooooooOOOOOOOO",
"OOOOOOOOoooooooo        OOOOOOOOOOOOOOOOXXXXXXXXOOOOOOOOOOOOOOOOOOOOOOOOOOOOOOOOXXXXXXXXOOOOOOOOOOOOOOOO        ooooooooOOOOOOOO",
"XXXXXXXXXXXXXXXX        OOOOOOOOOOOOOOOOXXXXXXXXOOOOOOOOOOOOOOOOOOOOOOOOOOOOOOOOXXXXXXXXOOOOOOOOOOOOOOOO        XXXXXXXXXXXXXXXX",
"XXXXXXXXXXXXXXXX        OOOOOOOOOOOOOOOOXXXXXXXXOOOOOOOOOOOOOOOOOOOOOOOOOOOOOOOOXXXXXXXXOOOOOOOOOOOOOOOO        XXXXXXXXXXXXXXXX",
"XXXXXXXXXXXXXXXX        OOOOOOOOOOOOOOOOXXXXXXXXOOOOOOOOOOOOOOOOOOOOOOOOOOOOOOOOXXXXXXXXOOOOOOOOOOOOOOOO        XXXXXXXXXXXXXXXX",
"XXXXXXXXXXXXXXXX        OOOOOOOOOOOOOOOOXXXXXXXXOOOOOOOOOOOOOOOOOOOOOOOOOOOOOOOOXXXXXXXXOOOOOOOOOOOOOOOO        XXXXXXXXXXXXXXXX",
"XXXXXXXXXXXXXXXX        OOOOOOOOOOOOOOOOXXXXXXXXOOOOOOOOOOOOOOOOOOOOOOOOOOOOOOOOXXXXXXXXOOOOOOOOOOOOOOOO        XXXXXXXXXXXXXXXX",
"XXXXXXXXXXXXXXXX        OOOOOOOOOOOOOOOOXXXXXXXXOOOOOOOOOOOOOOOOOOOOOOOOOOOOOOOOXXXXXXXXOOOOOOOOOOOOOOOO        XXXXXXXXXXXXXXXX",
"XXXXXXXXXXXXXXXX        OOOOOOOOOOOOOOOOXXXXXXXXOOOOOOOOOOOOOOOOOOOOOOOOOOOOOOOOXXXXXXXXOOOOOOOOOOOOOOOO        XXXXXXXXXXXXXXXX",
"XXXXXXXXXXXXXXXX        OOOOOOOOOOOOOOOOXXXXXXXXOOOOOOOOOOOOOOOOOOOOOOOOOOOOOOOOXXXXXXXXOOOOOOOOOOOOOOOO        XXXXXXXXXXXXXXXX",
"++++++++oooooooo........OOOOOOOOOOOOOOOOXXXXXXXXOOOOOOOOOOOOOOOOOOOOOOOOOOOOOOOOXXXXXXXXOOOOOOOOOOOOOOOO        ooooooooXXXXXXXX",
"++++++++oooooooo........OOOOOOOOOOOOOOOOXXXXXXXXOOOOOOOOOOOOOOOOOOOOOOOOOOOOOOOOXXXXXXXXOOOOOOOOOOOOOOOO        ooooooooXXXXXXXX",
"++++++++oooooooo........OOOOOOOOOOOOOOOOXXXXXXXXOOOOOOOOOOOOOOOOOOOOOOOOOOOOOOOOXXXXXXXXOOOOOOOOOOOOOOOO        ooooooooXXXXXXXX",
"++++++++oooooooo........OOOOOOOOOOOOOOOOXXXXXXXXOOOOOOOOOOOOOOOOOOOOOOOOOOOOOOOOXXXXXXXXOOOOOOOOOOOOOOOO        ooooooooXXXXXXXX",
"++++++++oooooooo........OOOOOOOOOOOOOOOOXXXXXXXXOOOOOOOOOOOOOOOOOOOOOOOOOOOOOOOOXXXXXXXXOOOOOOOOOOOOOOOO        ooooooooXXXXXXXX",
"++++++++oooooooo........OOOOOOOOOOOOOOOOXXXXXXXXOOOOOOOOOOOOOOOOOOOOOOOOOOOOOOOOXXXXXXXXOOOOOOOOOOOOOOOO        ooooooooXXXXXXXX",
"++++++++oooooooo........OOOOOOOOOOOOOOOOXXXXXXXXOOOOOOOOOOOOOOOOOOOOOOOOOOOOOOOOXXXXXXXXOOOOOOOOOOOOOOOO        ooooooooXXXXXXXX",
"++++++++oooooooo........OOOOOOOOOOOOOOOOXXXXXXXXOOOOOOOOOOOOOOOOOOOOOOOOOOOOOOOOXXXXXXXXOOOOOOOOOOOOOOOO        ooooooooXXXXXXXX",
"OOOOOOOOoooooooo        ........++++++++XXXXXXXXOOOOOOOOOOOOOOOOOOOOOOOOOOOOOOOOXXXXXXXX++++++++                ooooooooOOOOOOOO",
"OOOOOOOOoooooooo        ........++++++++XXXXXXXXOOOOOOOOOOOOOOOOOOOOOOOOOOOOOOOOXXXXXXXX++++++++                ooooooooOOOOOOOO",
"OOOOOOOOoooooooo        ........++++++++XXXXXXXXOOOOOOOOOOOOOOOOOOOOOOOOOOOOOOOOXXXXXXXX++++++++                ooooooooOOOOOOOO",
"OOOOOOOOoooooooo        ........++++++++XXXXXXXXOOOOOOOOOOOOOOOOOOOOOOOOOOOOOOOOXXXXXXXX++++++++                ooooooooOOOOOOOO",
"OOOOOOOOoooooooo        ........++++++++XXXXXXXXOOOOOOOOOOOOOOOOOOOOOOOOOOOOOOOOXXXXXXXX++++++++                ooooooooOOOOOOOO",
"OOOOOOOOoooooooo        ........++++++++XXXXXXXXOOOOOOOOOOOOOOOOOOOOOOOOOOOOOOOOXXXXXXXX++++++++                ooooooooOOOOOOOO",
"OOOOOOOOoooooooo        ........++++++++XXXXXXXXOOOOOOOOOOOOOOOOOOOOOOOOOOOOOOOOXXXXXXXX++++++++                ooooooooOOOOOOOO",
"OOOOOOOOoooooooo        ........++++++++XXXXXXXXOOOOOOOOOOOOOOOOOOOOOOOOOOOOOOOOXXXXXXXX++++++++                ooooooooOOOOOOOO",
"OOOOOOOOoooooooo        OOOOOOOO        OOOOOOOO++++++++++++++++++++++++++++++++OOOOOOOO        OOOOOOOO        ooooooooOOOOOOOO",
"OOOOOOOOoooooooo        OOOOOOOO        OOOOOOOO++++++++++++++++++++++++++++++++OOOOOOOO        OOOOOOOO        ooooooooOOOOOOOO",
"OOOOOOOOoooooooo        OOOOOOOO        OOOOOOOO++++++++++++++++++++++++++++++++OOOOOOOO        OOOOOOOO        ooooooooOOOOOOOO",
"OOOOOOOOoooooooo        OOOOOOOO        OOOOOOOO++++++++++++++++++++++++++++++++OOOOOOOO        OOOOOOOO        ooooooooOOOOOOOO",
"OOOOOOOOoooooooo        OOOOOOOO        OOOOOOOO++++++++++++++++++++++++++++++++OOOOOOOO        OOOOOOOO        ooooooooOOOOOOOO",
"OOOOOOOOoooooooo        OOOOOOOO        OOOOOOOO++++++++++++++++++++++++++++++++OOOOOOOO        OOOOOOOO        ooooooooOOOOOOOO",
"OOOOOOOOoooooooo        OOOOOOOO        OOOOOOOO++++++++++++++++++++++++++++++++OOOOOOOO        OOOOOOOO        ooooooooOOOOOOOO",
"OOOOOOOOoooooooo        OOOOOOOO        OOOOOOOO++++++++++++++++++++++++++++++++OOOOOOOO        OOOOOOOO        ooooooooOOOOOOOO",
"XXXXXXXXXXXXXXXX        OOOOOOOOOOOOOOOO........                                ........OOOOOOOOOOOOOOOO        XXXXXXXXXXXXXXXX",
"XXXXXXXXXXXXXXXX        OOOOOOOOOOOOOOOO........                                ........OOOOOOOOOOOOOOOO        XXXXXXXXXXXXXXXX",
"XXXXXXXXXXXXXXXX        OOOOOOOOOOOOOOOO........                                ........OOOOOOOOOOOOOOOO        XXXXXXXXXXXXXXXX",
"XXXXXXXXXXXXXXXX        OOOOOOOOOOOOOOOO........                                ........OOOOOOOOOOOOOOOO        XXXXXXXXXXXXXXXX",
"XXXXXXXXXXXXXXXX        OOOOOOOOOOOOOOOO........                                ........OOOOOOOOOOOOOOOO        XXXXXXXXXXXXXXXX",
"XXXXXXXXXXXXXXXX        OOOOOOOOOOOOOOOO........                                ........OOOOOOOOOOOOOOOO        XXXXXXXXXXXXXXXX",
"XXXXXXXXXXXXXXXX        OOOOOOOOOOOOOOOO........                                ........OOOOOOOOOOOOOOOO        XXXXXXXXXXXXXXXX",
"XXXXXXXXXXXXXXXX        OOOOOOOOOOOOOOOO........                                ........OOOOOOOOOOOOOOOO        XXXXXXXXXXXXXXXX",
"++++++++oooooooo        OOOOOOOOOOOOOOOOXXXXXXXXOOOOOOOOOOOOOOOOOOOOOOOOOOOOOOOOXXXXXXXXOOOOOOOOOOOOOOOO        oooooooo++++++++",
"++++++++oooooooo        OOOOOOOOOOOOOOOOXXXXXXXXOOOOOOOOOOOOOOOOOOOOOOOOOOOOOOOOXXXXXXXXOOOOOOOOOOOOOOOO        oooooooo++++++++",
"++++++++oooooooo        OOOOOOOOOOOOOOOOXXXXXXXXOOOOOOOOOOOOOOOOOOOOOOOOOOOOOOOOXXXXXXXXOOOOOOOOOOOOOOOO        oooooooo++++++++",
"++++++++oooooooo        OOOOOOOOOOOOOOOOXXXXXXXXOOOOOOOOOOOOOOOOOOOOOOOOOOOOOOOOXXXXXXXXOOOOOOOOOOOOOOOO        oooooooo++++++++",
"++++++++oooooooo        OOOOOOOOOOOOOOOOXXXXXXXXOOOOOOOOOOOOOOOOOOOOOOOOOOOOOOOOXXXXXXXXOOOOOOOOOOOOOOOO        oooooooo++++++++",
"++++++++oooooooo        OOOOOOOOOOOOOOOOXXXXXXXXOOOOOOOOOOOOOOOOOOOOOOOOOOOOOOOOXXXXXXXXOOOOOOOOOOOOOOOO        oooooooo++++++++",
"++++++++oooooooo        OOOOOOOOOOOOOOOOXXXXXXXXOOOOOOOOOOOOOOOOOOOOOOOOOOOOOOOOXXXXXXXXOOOOOOOOOOOOOOOO        oooooooo++++++++",
"++++++++oooooooo        OOOOOOOOOOOOOOOOXXXXXXXXOOOOOOOOOOOOOOOOOOOOOOOOOOOOOOOOXXXXXXXXOOOOOOOOOOOOOOOO        oooooooo++++++++",
"OOOOOOOOoooooooo        OOOOOOOOOOOOOOOOXXXXXXXXOOOOOOOOOOOOOOOOOOOOOOOOOOOOOOOOXXXXXXXXOOOOOOOOOOOOOOOO        ooooooooOOOOOOOO",
"OOOOOOOOoooooooo        OOOOOOOOOOOOOOOOXXXXXXXXOOOOOOOOOOOOOOOOOOOOOOOOOOOOOOOOXXXXXXXXOOOOOOOOOOOOOOOO        ooooooooOOOOOOOO",
"OOOOOOOOoooooooo        OOOOOOOOOOOOOOOOXXXXXXXXOOOOOOOOOOOOOOOOOOOOOOOOOOOOOOOOXXXXXXXXOOOOOOOOOOOOOOOO        ooooooooOOOOOOOO",
"OOOOOOOOoooooooo        OOOOOOOOOOOOOOOOXXXXXXXXOOOOOOOOOOOOOOOOOOOOOOOOOOOOOOOOXXXXXXXXOOOOOOOOOOOOOOOO        ooooooooOOOOOOOO",
"OOOOOOOOoooooooo        OOOOOOOOOOOOOOOOXXXXXXXXOOOOOOOOOOOOOOOOOOOOOOOOOOOOOOOOXXXXXXXXOOOOOOOOOOOOOOOO        ooooooooOOOOOOOO",
"OOOOOOOOoooooooo        OOOOOOOOOOOOOOOOXXXXXXXXOOOOOOOOOOOOOOOOOOOOOOOOOOOOOOOOXXXXXXXXOOOOOOOOOOOOOOOO        ooooooooOOOOOOOO",
"OOOOOOOOoooooooo        OOOOOOOOOOOOOOOOXXXXXXXXOOOOOOOOOOOOOOOOOOOOOOOOOOOOOOOOXXXXXXXXOOOOOOOOOOOOOOOO        ooooooooOOOOOOOO",
"OOOOOOOOoooooooo        OOOOOOOOOOOOOOOOXXXXXXXXOOOOOOOOOOOOOOOOOOOOOOOOOOOOOOOOXXXXXXXXOOOOOOOOOOOOOOOO        ooooooooOOOOOOOO",
"OOOOOOOOoooooooo........OOOOOOOOOOOOOOOOXXXXXXXXOOOOOOOOOOOOOOOOOOOOOOOOOOOOOOOOXXXXXXXXOOOOOOOOOOOOOOOO........ooooooooOOOOOOOO",
"OOOOOOOOoooooooo........OOOOOOOOOOOOOOOOXXXXXXXXOOOOOOOOOOOOOOOOOOOOOOOOOOOOOOOOXXXXXXXXOOOOOOOOOOOOOOOO........ooooooooOOOOOOOO",
"OOOOOOOOoooooooo........OOOOOOOOOOOOOOOOXXXXXXXXOOOOOOOOOOOOOOOOOOOOOOOOOOOOOOOOXXXXXXXXOOOOOOOOOOOOOOOO........ooooooooOOOOOOOO",
"OOOOOOOOoooooooo........OOOOOOOOOOOOOOOOXXXXXXXXOOOOOOOOOOOOOOOOOOOOOOOOOOOOOOOOXXXXXXXXOOOOOOOOOOOOOOOO........ooooooooOOOOOOOO",
"OOOOOOOOoooooooo........OOOOOOOOOOOOOOOOXXXXXXXXOOOOOOOOOOOOOOOOOOOOOOOOOOOOOOOOXXXXXXXXOOOOOOOOOOOOOOOO........ooooooooOOOOOOOO",
"OOOOOOOOoooooooo........OOOOOOOOOOOOOOOOXXXXXXXXOOOOOOOOOOOOOOOOOOOOOOOOOOOOOOOOXXXXXXXXOOOOOOOOOOOOOOOO........ooooooooOOOOOOOO",
"OOOOOOOOoooooooo........OOOOOOOOOOOOOOOOXXXXXXXXOOOOOOOOOOOOOOOOOOOOOOOOOOOOOOOOXXXXXXXXOOOOOOOOOOOOOOOO........ooooooooOOOOOOOO",
"OOOOOOOOoooooooo........OOOOOOOOOOOOOOOOXXXXXXXXOOOOOOOOOOOOOOOOOOOOOOOOOOOOOOOOXXXXXXXXOOOOOOOOOOOOOOOO........ooooooooOOOOOOOO",
"XXXXXXXX        XXXXXXXX        ++++++++XXXXXXXXOOOOOOOOOOOOOOOOOOOOOOOOOOOOOOOOXXXXXXXX++++++++        XXXXXXXX        XXXXXXXX",
"XXXXXXXX        XXXXXXXX        ++++++++XXXXXXXXOOOOOOOOOOOOOOOOOOOOOOOOOOOOOOOOXXXXXXXX++++++++        XXXXXXXX        XXXXXXXX",
"XXXXXXXX        XXXXXXXX        ++++++++XXXXXXXXOOOOOOOOOOOOOOOOOOOOOOOOOOOOOOOOXXXXXXXX++++++++        XXXXXXXX        XXXXXXXX",
"XXXXXXXX        XXXXXXXX        ++++++++XXXXXXXXOOOOOOOOOOOOOOOOOOOOOOOOOOOOOOOOXXXXXXXX++++++++        XXXXXXXX        XXXXXXXX",
"XXXXXXXX        XXXXXXXX        ++++++++XXXXXXXXOOOOOOOOOOOOOOOOOOOOOOOOOOOOOOOOXXXXXXXX++++++++        XXXXXXXX        XXXXXXXX",
"XXXXXXXX        XXXXXXXX        ++++++++XXXXXXXXOOOOOOOOOOOOOOOOOOOOOOOOOOOOOOOOXXXXXXXX++++++++        XXXXXXXX        XXXXXXXX",
"XXXXXXXX        XXXXXXXX        ++++++++XXXXXXXXOOOOOOOOOOOOOOOOOOOOOOOOOOOOOOOOXXXXXXXX++++++++        XXXXXXXX        XXXXXXXX",
"XXXXXXXX        XXXXXXXX        ++++++++XXXXXXXXOOOOOOOOOOOOOOOOOOOOOOOOOOOOOOOOXXXXXXXX++++++++        XXXXXXXX        XXXXXXXX"
};
