/* XPM */
static char **[] = {
/* columns rows colors chars-per-pixel */
"128 128 3 1",
"  c #222222",
". c #483B3A",
"X c #775C55",
/* pixels */
"                        ........                                ........................        ........                        ",
"                        ........                                ........................        ........                        ",
"                        ........                                ........................        ........                        ",
"                        ........                                ........................        ........                        ",
"                        ........                                ........................        ........                        ",
"                        ........                                ........................        ........                        ",
"                        ........                                ........................        ........                        ",
"                        ........                                ........................        ........                        ",
"        ................................................................................................................XXXXXXXX",
"        ................................................................................................................XXXXXXXX",
"        ................................................................................................................XXXXXXXX",
"        ................................................................................................................XXXXXXXX",
"        ................................................................................................................XXXXXXXX",
"        ................................................................................................................XXXXXXXX",
"        ................................................................................................................XXXXXXXX",
"        ................................................................................................................XXXXXXXX",
"........................................................................................................................XXXXXXXX",
"........................................................................................................................XXXXXXXX",
"........................................................................................................................XXXXXXXX",
"........................................................................................................................XXXXXXXX",
"........................................................................................................................XXXXXXXX",
"........................................................................................................................XXXXXXXX",
"........................................................................................................................XXXXXXXX",
"........................................................................................................................XXXXXXXX",
"........................................................................................................................XXXXXXXX",
"........................................................................................................................XXXXXXXX",
"........................................................................................................................XXXXXXXX",
"........................................................................................................................XXXXXXXX",
"........................................................................................................................XXXXXXXX",
"........................................................................................................................XXXXXXXX",
"........................................................................................................................XXXXXXXX",
"........................................................................................................................XXXXXXXX",
"        ................................................................................................................XXXXXXXX",
"        ................................................................................................................XXXXXXXX",
"        ................................................................................................................XXXXXXXX",
"        ................................................................................................................XXXXXXXX",
"        ................................................................................................................XXXXXXXX",
"        ................................................................................................................XXXXXXXX",
"        ................................................................................................................XXXXXXXX",
"        ................................................................................................................XXXXXXXX",
"........................................................................................................................XXXXXXXX",
"........................................................................................................................XXXXXXXX",
"........................................................................................................................XXXXXXXX",
"........................................................................................................................XXXXXXXX",
"........................................................................................................................XXXXXXXX",
"........................................................................................................................XXXXXXXX",
"........................................................................................................................XXXXXXXX",
"........................................................................................................................XXXXXXXX",
"        ........................................................................................................................",
"        ........................................................................................................................",
"        ........................................................................................................................",
"        ........................................................................................................................",
"        ........................................................................................................................",
"        ........................................................................................................................",
"        ........................................................................................................................",
"        ........................................................................................................................",
"        ................................................................................................................XXXXXXXX",
"        ................................................................................................................XXXXXXXX",
"        ................................................................................................................XXXXXXXX",
"        ................................................................................................................XXXXXXXX",
"        ................................................................................................................XXXXXXXX",
"        ................................................................................................................XXXXXXXX",
"        ................................................................................................................XXXXXXXX",
"        ................................................................................................................XXXXXXXX",
"        ........................................................................................................................",
"        ........................................................................................................................",
"        ........................................................................................................................",
"        ........................................................................................................................",
"        ........................................................................................................................",
"        ........................................................................................................................",
"        ........................................................................................................................",
"        ........................................................................................................................",
"........................................................................................................................XXXXXXXX",
"........................................................................................................................XXXXXXXX",
"........................................................................................................................XXXXXXXX",
"........................................................................................................................XXXXXXXX",
"........................................................................................................................XXXXXXXX",
"........................................................................................................................XXXXXXXX",
"........................................................................................................................XXXXXXXX",
"........................................................................................................................XXXXXXXX",
"........................................................................................................................XXXXXXXX",
"........................................................................................................................XXXXXXXX",
"........................................................................................................................XXXXXXXX",
"........................................................................................................................XXXXXXXX",
"........................................................................................................................XXXXXXXX",
"........................................................................................................................XXXXXXXX",
"........................................................................................................................XXXXXXXX",
"........................................................................................................................XXXXXXXX",
"        ........................................................................................................................",
"        ........................................................................................................................",
"        ........................................................................................................................",
"        ........................................................................................................................",
"        ........................................................................................................................",
"        ........................................................................................................................",
"        ........................................................................................................................",
"        ........................................................................................................................",
"        ........................................................................................................................",
"        ........................................................................................................................",
"        ........................................................................................................................",
"        ........................................................................................................................",
"        ........................................................................................................................",
"        ........................................................................................................................",
"        ........................................................................................................................",
"        ........................................................................................................................",
"        ................................................................................................................XXXXXXXX",
"        ................................................................................................................XXXXXXXX",
"        ................................................................................................................XXXXXXXX",
"        ................................................................................................................XXXXXXXX",
"        ................................................................................................................XXXXXXXX",
"        ................................................................................................................XXXXXXXX",
"        ................................................................................................................XXXXXXXX",
"        ................................................................................................................XXXXXXXX",
"        ................................................................................................................XXXXXXXX",
"        ................................................................................................................XXXXXXXX",
"        ................................................................................................................XXXXXXXX",
"        ................................................................................................................XXXXXXXX",
"        ................................................................................................................XXXXXXXX",
"        ................................................................................................................XXXXXXXX",
"        ................................................................................................................XXXXXXXX",
"        ................................................................................................................XXXXXXXX",
"XXXXXXXXXXXXXXXXXXXXXXXX................XXXXXXXX........XXXXXXXXXXXXXXXXXXXXXXXXXXXXXXXX........XXXXXXXXXXXXXXXXXXXXXXXXXXXXXXXX",
"XXXXXXXXXXXXXXXXXXXXXXXX................XXXXXXXX........XXXXXXXXXXXXXXXXXXXXXXXXXXXXXXXX........XXXXXXXXXXXXXXXXXXXXXXXXXXXXXXXX",
"XXXXXXXXXXXXXXXXXXXXXXXX................XXXXXXXX........XXXXXXXXXXXXXXXXXXXXXXXXXXXXXXXX........XXXXXXXXXXXXXXXXXXXXXXXXXXXXXXXX",
"XXXXXXXXXXXXXXXXXXXXXXXX................XXXXXXXX........XXXXXXXXXXXXXXXXXXXXXXXXXXXXXXXX........XXXXXXXXXXXXXXXXXXXXXXXXXXXXXXXX",
"XXXXXXXXXXXXXXXXXXXXXXXX................XXXXXXXX........XXXXXXXXXXXXXXXXXXXXXXXXXXXXXXXX........XXXXXXXXXXXXXXXXXXXXXXXXXXXXXXXX",
"XXXXXXXXXXXXXXXXXXXXXXXX................XXXXXXXX........XXXXXXXXXXXXXXXXXXXXXXXXXXXXXXXX........XXXXXXXXXXXXXXXXXXXXXXXXXXXXXXXX",
"XXXXXXXXXXXXXXXXXXXXXXXX................XXXXXXXX........XXXXXXXXXXXXXXXXXXXXXXXXXXXXXXXX........XXXXXXXXXXXXXXXXXXXXXXXXXXXXXXXX",
"XXXXXXXXXXXXXXXXXXXXXXXX................XXXXXXXX........XXXXXXXXXXXXXXXXXXXXXXXXXXXXXXXX........XXXXXXXXXXXXXXXXXXXXXXXXXXXXXXXX"
};
