/* XPM */
static char *_7e6bdcb2eea44d0dea3fe968d63a31249vb8oa50PtvzTxg[] = {
/* columns rows colors chars-per-pixel */
"16 16 3 1 ",
"  c #222222",
". c #483B3A",
"X c #775C55",
/* pixels */
"   .    ... .   ",
" ..............X",
"...............X",
"...............X",
" ..............X",
".XX............X",
"   XX.....X.....",
"     XX..X ....X",
"       X  ......",
"  ...   ........",
"  ....  X......X",
"  X..X . .......",
"   XX  .........",
"      .........X",
"      .........X",
"XXX  X.XXXX.XXXX"
};
