/* XPM */
static char *floor_0[] = {
/* columns rows colors chars-per-pixel */
"128 128 30 1",
"  c #1E1F1F",
". c #1E1F20",
"X c #1F2020",
"o c #232222",
"O c #292626",
"+ c #2B2827",
"@ c #2D2929",
"# c #332D2D",
"$ c #37302F",
"% c #38302F",
"& c #3C3332",
"* c #413635",
"= c #443837",
"- c #473A39",
"; c #483B3A",
": c #4F403E",
"> c #51413F",
", c #554441",
"< c #594743",
"1 c #5D4946",
"2 c #604C47",
"3 c #634E49",
"4 c #66504B",
"5 c #6A534D",
"6 c #6E5650",
"7 c #705751",
"8 c #755A53",
"9 c #795D56",
"0 c #7C5F58",
"q c #7D6058",
/* pixels */
"ooooXoXoXXX.X......Xoo@#$&****&%#@ooXXXX XXXXXXXXXXXXXXX  XXoOO#$&&=-;;;:;;;;;;;;;;--*$$@OOooOO@$&**=*$$#@Oo... ..........      ",
"ooXooXoXoXoXXXXX...oo+@#%&*==*&%#@OooXXXXXXXXXoXXXXXXXXX XXooOO#$&*=-;;;;;;;;;;;:;;-=*&##OOOoOO#$&*****$#@Ooo......o........    ",
"XXooooXooXXooXoXXXXoo@@#%&*==*&%#@@ooXXXXXXooXooooXoXXXXXXoooO@#$&**-;;;;;;;;;;;;;;-=*$$#OOoOOO#$$==***$#@Ooo.....o..oo.o.ooo.  ",
"oooXXXoooooooooXooooo+@#&&*==*&&$@OooooXoXooooooooooooooXooooO@$$&*-;;;;;;;;;;;:;;;;=*&$@OOOOO@#$**=***$#@OOoooooooooooooooooooo",
"XooXooooooooooooooo+o@@$%&*==**%$@@OoooooooooOoooooooooooooOO@@#$&*=;;;:;;;;;;;;;;;;==&$#@@OO@@$$$*-***$##OOooOooOOoOoOOOOOOOOOO",
"ooXooooooO+++O+Oo+o++##$&**==**&$#@@@OOoO@OOOOOO@O@O@OOOOOOOO@#$&**=-;;;;;;;;;;;;;;;==&&$#@@@@#$&*=*****$#@@OOOOOOOOOO@@@@@#####",
" XXoooooo++@@@++@+@@@#$%&*==-**&$##@@@@@@@@@@@@@@@@@@@@@@OO@##$$&**=-;;;;;;;;;;;;;--==&&$$#@###$***--**$$##@@@O@OO@O@@###&&$&&&$",
"XXoooooO+@++#########$$&*=*-=-*&&&$####@#@#@###@##@##@##@#####$&&*=--;;;;;;;;;;;;;--===&$$###$$$$**--****$####@#@####$$$&**=====",
"XXoXoo++++##$$$$$$%%%&&&***--=***&$#$$#$$#$$$$$$$#$$$$$#$#$$&$&&*==;-;;;;;;;;;;;;;;--==&&&$$$&&&*=*-*-==*$$$$$#$$$$%%&*==;;>>>>>",
"XXXoooO+##$&&&&&&&&%&&***----=-=***&&&&&&&&&&&&&&&&&&&&&&&&&&&**====;;;;;;;;;;;;;;;;--==*=&&&&&=*-----******&$&$%&%&*==;;>,<1112",
"X ooo+++#$&&**==*******=-=-----*=*=************************&***-==-;-;;;;;;;;;;;;;;;--==========-*-------*******&***=;;,<1234444",
"oXooo++##&&*===;=-==-------------=--==*==**-**-;*==**-*-*===-=--;=;=;;;;;;;;;;;;;-;-----=======----------*-*-***===-;;>,13456778",
"oooOO++#$&*==;;;-;--;;;;--;-;;--;;;;;;;;----;;;;--;;;;;;------;;;;;=-;;;;;;;;;;;;;-;;;;;----;;-;---;;-----;;;---==-;;,,134677880",
"OoOO++##&&==;;;;;;;;;;;;;;;;-;;;;;;;;;;;-;;;;;;;;-;;;;;;;;;;;;;;;;;;;;;-;-;-;;;-;-;;;;;;--;;;;;;--;;;;;;--;;;;;;=-;;;><134688880",
"+O++###&&*=;;;;;;;;;;;;;;;;;;;;;;;;;;;;;;;;;;;;;;;;;;;;;;;;;;;;;;;;;;-;;-;;;;-;-;;;;;;;;;;;;;;;;;;;;;;;;;;;;;;;;;;;;>,<14678800q",
"######&&&===;;;;;:;;;;;;;;;;;;;;;;:;;;;;;;;;;;;;;;;;;;:;;;;:;;;;;;;;;;-;-;;-;;;;;;;;;;;;;;;;;:;;;;;;;;;;;;;;;;;;;;;;;><24488800q",
"$$$$%&&&*=--;:;;:;;;;;;;;;;;;;;;;;;;;;;;;;;;;;;;;;;;;;;;;;;;;;;;;;;;;;-;;;-;-;-;;;;;;;;;;;;;;;;;;;;;;;;;;;;;;;--;;;;;,<145788900",
"&&&&&*&===-;;;;;;;;;;;;;;;;;;;;;;;;;;;;;;;;;;;;;;;;;;;;;;;;;;;;;;;;;;;-;;-;;-;;;;--;;;;;;;;;;;;;;;;;;-;;;;;;;;--;;;;:>,344688000",
"&=**======--;;;;;;;;;;;;;;;;-;;;;;;;;;;;;;;;;;;;;;;;;;;;;;;;;;;;;;;;;;;;;;;-;-;-;;;;-;;;;;;;;;;;;;-;;;;;;;;;;;--;;;;:>,136788080",
"=======----;-;;;;;;;-;;-;;;;;;;;;;-;;;;;;;;;;;;;;;;;;;;;;;;;;;;;;;;;-;-;-;;;;;;;;--;;;;-;;;;;;;;;-;;;-;;;;;;;;---;;;;,,134678880",
"=----------;;;;;;;;;-;;;;-;-;;;;;;;;-;-;;;;;;;;;;;;;;;;;;;;;;-;--;-;;-;;;;;;-;-;;;;;;;;-;-;-;;;-;;;-;-;;;;;;;-----;;;,,234778080",
";;;;;;;;-;;;-;-;;;;;;;;-;;;;;-;--;-;;;;;;;;;;;;;;;;;;;;-;;;;;;;;;;;;;;-;-;-;;;;;;-;--;;;;-;;;-;;-;;;;;;-;;;;;---=-;;;>,134688880",
":;;;;:;;;;;;;;;-;;;;-;-;-;;;;-;-;;;-;;-;;;;;;;;;;;;;;;;;;;;;;-;;;--;-;;;;;-;;;-;-;;;;-;-;;;;-;;;;-;-;-;;;;;;;------;:>,135678808",
";;;:;;:;;;;;-;;;;;;;;;;;;;-;;;;;-;;;;-;;;;;;;;;;;;;;;;;;;;;;;;-;;;;;;;;--;;;;-;;;;;-;;;;;-;-;;-;;;;;;;-;-;-;---=---;;,,144788800",
";:;:;:;;;;;;;;-;-;;;;;;;-;;-;-;;;;--;;-;;;;;;-;-;;;;;;;-;;-;-;;-;;;--;;;;;;;;-;---;;;;-;-;-;;;;;-;;;--;;;;-;-----;;;;><134678800",
";;;;;;;;;;;;;;;;;;-;--;-;;;-;;-;;-;;-;;;;-;-;;;;;;;;-;;;;-;;;;;;-;;;;;;-;-;-;;;;;;-;-;;;;;;;-;-;;;;-;;-;;-;;;;---;;;>>,135778808",
";;;;;;;;;;--;;;-;-;-;;;;-;-;;;;;;;;;;-;--;;;;-;;;;;;;;;-;;;;--;-;-;--;;;;-;-;-;;;;;;;;;-;;-;;;-;-;-;;;;;;;;-------;;;,,134788080",
";;;-;;;;----;;;;;;;;-;;-;;;;-;-;;-;-;;;;-;;-;;-;;;;;;-;;;-;-;;;;;;;;;;-;;;;;;;-;-;-;-;;;--;;-;;;;;;;-;-;;-;;;-----;;;>,135778880",
"=-=---=-----;;;;;-;;;;-;;-;-;;;;;;;;-;-;;-;;-;;;;;;;-;-;;;;;;-;--;;;-;;-;-;;-;;-;;-;;;;;;;;-;;-;;--;;-;;;;;;---=---;>>,134778080",
"&*&**=**=----;;;;;;;;-;;;;;;;-;--;-;;;;;;;-;;;-;-;-;;;;;-;-;;;;;;;;--;;;;;;-;;;--;;;;--;-;;;;-;;;;;;;;;--;-;;----=-;;><134688880",
"&&&&&&&==----;;;;;-;;;;-;--;-;;;;;;-;--;-;;;-;-;;;;-;;-;;;;-;--;-;-;;-;-;;;;-;-;;;;;;;;;;-;-;;;;;--;-;;;;;;-;------;>>,136678808",
"####&&&&&*=--;;;;;;;-;;;;;;;;;;--;;;;;;;;;-;;;;;;-;;--;;-;;;;;;;;;;;;;;;-;-;;;;;;-;-;--;;;;;;-;-;;;;;;;--;;;;-----;;;>,134788080",
"#@####&&&&*--;;;;;;;;;;;;-;;;;-;--;;;;-;-;;-;-;;;;;;;-;;-;-;-;;;;-;--;-;;-;--;-;;-;--;-;;-;--;-;;-;;-;-;;;-;---=-=-;;,,135688808",
"O+++@##$&**=-;;;;;;;;;;;;;-;;-;;;;-;-;;;;;;-;;-;-;-;;;;-;;;;;;;-;;;;;;;;;;;;;;;;;;;;;;;;;;;;;;;;;;;-;;;;;-;;;;----;;:>,134678880",
"oOOO@@##&&*-;;;;;;;;;;;;-;;;;;;;;;;;;;;--;-;;;;;;;;-;;-;;;-;-;-;;-;;;;-;;-;;;;-;;-;;;;-;;-;;;--;;;;;;;-;;;;-------;;;>,135688800",
"ooOOO@@#$&*-;;;;;;;;;;;;;;;-;-;--;-;-;;;;;;;-;-;-;;;-;;;;-;;;;;;;;-;;-;;;;-;;-;;;;-;;-;;;;-;;;;;-;-;--;;-;;;;-----;;:>,135678808",
"oOOOOO##&&**;;;;;;;;;;;;;;;;;-;;;;-;;;;;;-;-;;;;-;;;-;-;-;;-;;-;-;-;;-;--;-;;-;--;-;;-;;-;-;;-;;-;-;;-;;;;;;;-----;;;,,235678800",
"oOOO+@##&&*-;;;;;;;;-;-;;--;;;-;-;;;;--;;;;;;-;-;;-;;;;;-;;;-;;;;;;;;;;;;;;;;;;;;;;;;;;-;;;;;;;-;;;;;;-;-;-;;;-=-=;;;>,134788080",
"O@@@@###&&*-;;;;;;;;;;;-;;;;;;;;;;;;;;;;;--;-;;;-;-;;;;-;-;-;-;;;;-;;-;;;;-;;-;;;;-;;-;;;;-;;-;;;;-;;;;;;;-;;------;:>,135788800",
"#@###$&&&*-;;;;;;;;;-;;-;-;--;-;;-;-;--;;;;;;;;-;;;;;-;;;;;;;;;-;-;;;;--;-;;;;-;--;;;;-;--;;;;-;;-;;-;-;-;;;;----=-;;,,235788080",
"$$$&&&&&**=---;;;;;;-;;;;;;;;;;-;;;-;-;-;-;;-;-;;-;-;;;--;-;;;;;-;;-;;;;;;;;-;;-;;-;;;;;;;;;-;;-;;;-;-;;;;;;;----;;;;>,135688000",
"&&&&&****-=---;;;;;;;;;---;-;-;;;-;;;;;;;;;-;;;;;-;;-;;;;;;;-;-;-;;;;-;--;-;;;;--;;;;-;--;-;;;;-;-;;;;;-;-;-;--=-;;;>>,335688880",
"&*******-----;;;;-;--;-;;;;;-;;;-;;;;-;;;;-;;;-;;;;;;-;-;;-;;;;-;-;--;;;;;;--;-;;-;--;;;;;;--;-;;-;-;-;;-;;;;-----;;;,,135688000",
"-***-*-*----;;;;;;;;;;;;-;;-;;-;;;-;;;-;-;;;-;-;;-;-;;;;;-;;;-;;;;;;;;;--;;;;;;;;;;;;;;--;;;;;;;;;;;;;-;;;;-;;-=--;;;>,135678888",
"***--*--=---;;;;;;;;-;-;;-;;;;;;-;-;-;;;-;-;;-;;;;-;;-;-;;;;;-;-;;;;;;;--;;;;;;;;;;;;;;--;;;;;;;;-;;-;;-;-;;-;------;><<34577888",
"*******-*----;;;;;-;;;;;;;-;-;-;;;;;;;;-;;;;;;-;;-;;;;;;;-;-;;;;;-;--;;;;;;--;-;;-;--;;;;;-;-;-;;;;-;;;;;;-;;------;;:,<13446666",
"&&&&&***=----;;;;;;-;;-;-;;;;;-;;;-;-;-;;;;-;;;;;;;;;-;;;-;-;-;;-;;;;-;--;-;;;;--;;;;-;--;-;;;;-;;-;-;--;;;;;------;:>>,<1334445",
"$$&&&&&&**---;;;;;;;;-;;;;-;-;;;;-;;;;;;;-;;-;-;;-;-;;-;;;;;;;--;;-;;;;;;;;;-;;;-;;-;;;;;;;;;-;;-;;;;;;;-;-;-;----;;;;>,,<113333",
"####$$&&***--;;;;;;;;;;-;-;-;;-;-;;-;-;;-;;;;;-;;;;;;;;-;;-;-;;;--;;;;-;-;;-;;;;;;-;-;;-;-;;;;--;-;-;--;;-;-;-;--;-;;;>>>,<<<111",
"@O@@@#$$&**--;;;;;;;;-;;;;;;;-;;-;;;;;-;;;;-;-;;;--;-;;;-;;;;;;-;;-;;-;;-;;;;-;--;;;;;;-;;-;;-;;;;;;;;;;;;;;;;----;;;:::>>>,>,,>",
"OOOO@@##&&*=-;;;:;;;;-;-;-;;;;;;;-;--;;;;-;;;;;;;;;;;;;-;;;--;-;;;;;;;;-;-;--;;;;;;--;-;-;;;;;;;-;;;;--;-;;;;--;;-;;;;;:;;>>>>>>",
"oooOO@@#$&*=-;;;;;;;;;;;;;-;;-;-;;;;;;-;;;-;;-;--;-;;-;;-;;;;;;;-;-;;-;;;;;;;;;--;;;;;;;;;-;;-;-;;-;;;;;;;-;;;;--;-;;;;;;>;>>;>;",
".oooOO@#$&*=-;;;;;;;;;;-;;--;-;-;-;-;;;;;-;-;;;;;;;;-;-;;;;;-;-;;;-;;-;;;;;;;;;--;;;;;;;;;;;;-;;-;-;-;;;-;-;;-;;;;-;;;;:;:>;;>>;",
"...ooOO#$&**-;:;;;;;-;;;;-;;;;;;;;;;;-;-;;;;;-;--;--;;;;-;-;;;;;;-;;;;-;;-;-;-;;;;-;-;-;;--;;;;-;;;;;;;-;;;;;;-;;-;;;;;;>;>>>>>>",
"...ooO@#$$*=--;;;;;;;;-;;;;;-;;;;--;-;;;;-;;-;;;;;;;;;-;;;;-;;-;;;;;;;;;-;;;;-;--;-;;;;-;;;;;;;;;;-;;-;;;;-;;-----;;;:;>>>>>>,<<",
"..oooOO@$&*=-;:;;;;-;-;;;-;-;;-;;;;;;;;-;;-;-;;--;;-;-;;-;;;;-;;;-;--;-;;;-;;;;;;;;;;-;;;-;--;-;-;-;;;-;-;-;;-;---;;;;>>>,<11111",
"..ooOOO@$&&--;;;;:;;;;;;-;-;;;;;;;;-;-;-;;;;;;-;;-;;;;;;;;-;-;;;;-;--;-;-;;-;;;;;;-;-;;-;-;--;-;;;-;;;;;;;-;-;--;;;;;;;,<1223333",
"..o.oO@#$&&-;;;;;;;;;;-;;;;;-;-;-;;;;;;;;-;-;-;;;;-;-;-;-;;;;;;-;;;;;;;;-;;;;-;--;;;;;;;;;;;;;;;-;;;;-;--;;;;---;;;;::,<12334556",
"...ooO@@$&*-;;;;;;;;;;;;;;-;-;-;;-;-;-;;-;;;;;;-;;;;;;;-;;-;-;;;;--;;;;-;-;--;;;;;;--;---;;;;--;;-;;;-;;;;;-;---;;;;;>><13456667",
"..oooO@#$&**;;;;;;;;;;;;;-;;;;;;;;;;;;-;;;;--;;;-;-;-;;;;-;;;;-;;;;;;-;;;;;;;;;--;;;;;;;;;-;;;;;;;;-;;;--;;;-;--=;;;;>,123566788",
".o.ooO@#$&**-;;:;;;;;;;;-;;-;;-;-;;;-;;-;;;;;-;;;;-;;;;;-;;-;;;-;;-;;-;-;;;;;;;--;;;;;;;-;-;-;;;;;;;;;;--;;;;-;=;--;;,,<33566788",
"...oOO@@$&*=-;;;;;;;;;;;-;;;-;;;;;;-;;;;;--;;;-;;-;;;--;;;;--;;;-;;;;;;;;-;-;-;;;;-;-;-;;;;;;;;---;--;;;;;-;;;----;;;>,<13456666",
"..oooOO#$&&=-;;;;;;;;;;;;-;-;;;;-;-;-;--;;;;;;;;;;;;;;;;-;-;;-;-;;-;;-;;-;;;;-;--;-;;;;-;;-;;-;;;;;;;;;--;-;-;--;=;;;,>,12335555",
"...ooO@##&*=-;;;;;;;;;;;;;;;;-;-;;;;;;;;;-;--;-;;-;-;--;;;;;;;;;;-;;;;--;;-;;;;;;;;;;-;;-;-;;;-;-;;-;-;;;;;;;-;--;;;;;>,<<123333",
"  XooO@@#&*=;;:;;;;;;;;;;--;-;-;;;;;;;;-;;;;;;;-;;;;;;;-;;;;;;;---;;;;-;-;;-;-;;;-;-;;-;;;;;;-;-;;-;;;;;;;--;;----;;;:::,,<<1111",
" XXooO@#$&*=;;;;;;;;-;-;;;;;;;;;--;-;-;;-;--;-;;-;--;-;;-;--;-;;;;-;;-;;;;;;;;;-;-;;-;;;;-;-;;;;-;;;;-;-;-;;;-;-;-;;;:;::>>>,,,,",
"XXXoOO@@$&*=;;;;;;;;;;;-;--;;;;-;;;;-;;;;;;;-;;;;;;;-;;;;;;;-;;;;;;;;;;---;--;;;;;;;;-;--;;;;-;;;-;;;-;;;;;;;;----;;;;:;::::::>>",
"XoooOO@#$&*-;;;;;;;;-;;;;;;;;-;;-;;-;;-;-;;-;;-;-;;-;;-;-;;-;;-;-;-;;-;;;;;;;;;-;-;-;;;;;;;-;-;-;;;-;;;-;-;-;-;;;;-;;;;:;:;:::::",
"oooOO@@#&&*=-;;;;;;;;;--;;;-;-;-;-;;;;;;;-;;;;;;;-;;;;;;;-;;;;;;;;-;;;;;;;;;;;;-;;-;;-;-;-;;;-;;;;;;;;;-;;-;;;;;;-;;;;;;;;:;;:::",
"OOOO@@#$$&*=-;;;;;;;;-;;-;;;;;;;;;-;-;-;;;-;-;-;;;;--;-;;;;--;-;-;;;;--;;-;-;-;;;-;;;;;;;;-;;;;-;-;--;;;-;;;-;---;;;;;;;::::::::",
"OO@@@##&&**-;;;;;;;;;;;;;;;-;-;;-;;;-;-;-;;;-;-;-;;;;;-;-;;;;;-;;;;;;;;;-;;;;-;-;;;-;--;;;;;-;-;-;;;;-;-;;;-;;;---;;;;:::>>,,,,,",
"######&&&*==;;;;;;;;;-;-;-;;;;--;;-;;;;;;;;-;;;;;;;--;;;;;;--;;;;-;--;-;;;-;;;;;-;;;;;;;-;-;;;;;;;;-;;;;-;;;;-;--;-;;:::>,,<<1<<",
"###&$&&&**=---;;;;;;;;;;;;;;-;;;;;-;;;;-;-;-;;-;;;;;;;;-;-;-;;-;-;-;;;;;-;;-;-;;;-;-;;-;-;-;;;;;--;;;;-;-;-;;---;;;;;;>,,<122233",
"&&&&&&***=----;;;;;;;;;;-;-;;;;-;-;;-;;;;;;;-;;;;--;-;;;;;;;-;;;;;;;-;-;;;;;;;;-;;;;;-;;;;;;-;-;;;-;-;;;;;;;----=;;;::>,12244455",
"******==------;;;;;;;;;;;;;--;-;;;;;;-;-;-;;;-;;;;;;;;-;;-;;;;;;;;-;;;;---;--;;;;-;;;;;;;;;-;;;-;;;;;;;-;;-;----;;;;;>,,12455767",
"-=*--=-------;;;;;;;;;;;-;;;;;;;;-;-;;;;;-;-;;;-;--;;-;;;-;-;-;-;-;;-;;;;;;;;;;-;;-;;-;-;-;;-;;--;-;-;;;--;;----;=;;;>,<24577788",
"---;----;;;;;;;;-;-;;-;;-;;;-;;;;;;;;;-;;;-;;--;-;-;-;-;;;-;;-;-;;;;;-;-;;;-;;;-;;--;-;-;;;;;;-;;;-;;;;;;;;-;---==;;;>,125578899",
";;;;----;;;;-;-;;;;;;;-;;;-;;;-;-;---;;;;-;;;;;;;;;;;;-;;-;;;;;;;-;-;;;;;-;;;-;;;-;;;;;;;-;-;-;;-;;;;--;-;;;;-----;;:><245788990",
";;:;;;;;;;;;;;;-;--;-;;;-;-;;;;-;;;;;;-;;;;-;--;;;;-;;;;;;;-;--;;-;-;-;;-;;;;-;-;;;;-;;;;-;-;;;;;;;;;;;;;-;-;---=-;;;>,145788800",
";:;;:;;;;;;;-;;-;;;;;;;-;;;;;-;;-;;-;-;;-;;;;;;;;-;;-;-;;-;;;;;;;;;;;-;-;;-;;;;;;-;-;;-;;;;;;-;-;-;-;--;;;;;;---;;;;:><145780000",
";;;:;;:;;;;;;;;;;-;-;;-;;;;;;-;-;-;;;;-;-;;-;-;;;-;-;;-;;;;--;;;;-;;;;-;;;-;-;;-;;;-;-;;-;;;;-;;;;;-;-;-;;;;------;;:>,235789900",
":;;;;;;;;;;;;;;;;-;;-;;;;-;-;;;;;;-;;-;;-;;;;;;-;;;;-;;;;-;;;;;-;;-;-;;;;-;;;;;;-;;;;;;-;;-;;;-;;-;;;;;;;-;-----=-;;:>,145789900",
";;;;----;;;;;;;;;;;-;-;--;;;;-;;-;;;;;;;;-;--;;;;-;;;;;;;-;--;;;;;;;;;-;;;;;-;--;-;--;;;-;-;;;;;-;;;;--;-;;;----=-;;;>,135688999",
";-;;----;;;;;-;;-;;;;;;;;;;-;-;-;;;-;-;-;;;;;;;-;;--;-;-;;;;;;-;-;-;;-;;;-;-;;;;;;;;;;;-;;;;-;-;;;-;;;;;-;;-;-----;;:>,135578899",
"---===--------;;;;;;-;;;;-;;;-;;;;;;;-;;;-;-;;;;;;-;;-;-;-;;-;;-;;;;-;-;;;;;;--;;-;-;;;;-;;;;;;;-;-;-;;;;-;;;-----;;;>,133567888",
"*******==---;;;;;;-;;;;;;;-;;;;-;--;;;-;;;;;;-;-;-;;;;;;;;;-;;;;-;-;;;;;-;-;;;;;;;;;;-;-;;;--;--;;;;;;;-;;-;;-----;;;>,<13555777",
"&&&&&&***---;;;;;;;-;-;;;;;;-;-;;;;;;;;;-;;;;-;-;;;-;--;-;-;--;-;;;-;;-;;;;-;--;;-;;;-;;;-;;;;;;;;-;-;-;;;;;;------;::>,<2344555",
"#$$$&&&&**---;;;;;;;;;;;-;-;;;;;;-;--;-;;;-;;;;;;-;;;;;;;;;;;;;;-;;;--;;-;;;;;;;;;-;;;;-;;-;-;;--;-;;;;;-;-;;;-----;;:>>,<113333",
"@####$$&&*=-----;;;;;;;;;;;;;;;;;;;;;;;;-;;-;-;;;-;-;;-;;;;;;;;;;-;;;;-;-;-;-;;;;;;--;;;;;;;;;-;;;-;;;;;;-;-;----;;;;;:>,,,<1111",
"@O@@###$&**=--;;;;;;;;;;-;--;-;--;-;--;-;;;-;;-;;;;;-;;;-;-;;-;-;;;--;;;;;;;;;;--;;;;;;-;-;-;-;;-;;;;-;-;;;;;;;----;;;::>>,,,,,,",
"oOO@@@##$**-;;;;;;;;;;;;;;;;-;;;;;;-;;;;-;-;;;;;;-;;;;;;;;;--;;;-;;;;;;-;;-;-;-;;;-;;-;;-;;;;;;;;-;--;;;;-;;;;--;-;;;::;:::>::>,",
"ooOoo@@#$&*=;;;;;;;;;;;;-;;-;;-;;-;;-;;-;;;;-;-;;;--;-;--;;-;;-;;;;--;;;;-;;;;;;;-;;;;-;;;;-;-;-;;;;;;;-;;---;;;-;;;;;;;;:;;::;:",
"ooooOO@#$&*--;;;;;;;-;-;;-;;;;;;;;;;;;-;;-;-;;;;;;-;;-;-;;;;;;;;;;-;;-;;-;;-;;-;-;;;-;;-;;;;;-;;;;;;;;;-;;-;;-;-;-;;-;;;;;;;-;;;",
"..oooO@##$**-;;;;;;;;;;;;;-;-;-;;-;-;-;;;;;;;-;-;-;;;;;;;-;--;-;;-;;;;-;-;;;-;;;;;;--;;;;--;;;-;;-;--;;;;-;;;;;;;;-;----;-;----;",
"...ooO@#$&*-;;;;;;;;;--;-;;;;;;--;;;;;;-;--;-;;;;;;-;--;-;;;;;-;;;;;;;;;;-;-;-;--;-;;-;-;;;;;;;;-;;;;-;-;;;;-;;;;;;;-------*----",
"....oo@##&*--;;:;;;;;;;;;;;--;;;;;;--;;;;;;;;;;-;-;;;;;;;;;--;;;;-;--;-;;;;;;;;;;;;;;;;;-;-;-;-;;;-;;;;;;-;-;;-;;;;---------**==",
"...oOOO##&**-;;;:;;;;;;;;-;;-;-;;;;;;-;;-;-;;;-;-;;-;-;;;-;-;;-;-;-;-;;;;;;-;-;-;;;;;;;-;;;;;;;;-;;-;-;;;-;-;;;;-;;--------*--==",
"...ooOO#$&**-;;;;;;;-;-;;;;-;;-;-;-;;;;-;;-;;-;;;;;;;;;-;;;;;-;;;;;;;;-;;-;;;;;;--;-;-;;-;-;;-;-;;;;;;-;;;;;-;;;;;;;;--------*=-",
"..oooO@#$&**-;;;;;;;;;;--;-;;;;;;;-;;;-;;;;;;;;---;--;;;;-;;;;;;;;-;;;;--;;;;-;;;;;;-;;;;;;--;;;--;--;;;;-;;;-;;;;-;;-;---------",
".o.ooOO#$&*--;;;;;;;-;;;;;;;-;-;-;;;-;;;-;-;-;;;;;;;;;;-;;--;-;-;-;;;-;;;;-;;;-;-;;-;;-;-;;;-;;-;;;;;;;-;-;-;;;---;;;;;;--;;;;;;",
"...oOO@#$&**;;;;;;;;;;-;-;-;;-;;-;;;;;;;;;-;;;;;;;;-;;;;;;-;;-;-;;;-;-;--;-;-;;;;-;;;;;;;;;;;;-;;-;-;;;;;;-;-;;;;;-;;;;:;;:;:;::",
"..oooOO#$&**;;;;:;;;;;;;;;;;;;-;;;;--;---;;;;--;;-;;;-;-;-;;;;;;;-;;;;;;;;;;;;-;;;-;-;-;;-;--;;;;;;;;-;-;-;;;;----;;;;;;:::::>>:",
"o.oooO@#$&*-;;;:;;;;;;;;;--;-;;;-;;;;;;;;;;;;;;;-;;;;-;-;;;-;-;;;-;-;-;;;;-;-;-;-;;;;;-;-;;;;;;-;-;;;-;;;;;-;--;;-;;;;:::>,,,,,,",
"...oOOO##&*-;;;;;;;;;;;-;;;;;;;-;;-;-;;-;-;--;-;;;-;;;;;;-;;;;-;;;;;;;--;-;;;;;;;;-;-;;;;;;--;;;;;-;;;;-;-;;;;;---;;;::>,,<<1111",
"o.oooO@##&*=;;;;;;;;;-;-;-;;-;-;;;;;;-;;;;;;;;;--;-;;-;-;-;;-;;;;-;;-;-;;-;-;;-;;;-;;;;--;;;;;;;-;-;;;;;;;;-;-----;;;:>,,<222334",
"..ooOO@##&*=;;;;;;;;;;;;;;-;;;;;-;-;;;;--;--;-;;;;-;;-;;;;-;;;;-;;-;;;;;;;;;-;;;;-;;-;;;;;;-;--;;;;;-;-;-;;;;----;;;;:>,<2344555",
"...ooOO##&*=;;;;;;;;-;;;;;;;;;-;;;-;-;-;;;;;-;;;;;;;;;;;-;;;-;-;;;;;;;-;;-;;;;;;;;;;;-;--;;;;;;;;;-;;;-;;;-;-;----;;::,<23456666",
"o.oooO@#$&*=;;;;;;;-;;-;-;-;;-;;-;;;;;;;-;;-;;-;-;-;;-;-;;;-;;;--;-;;-;;;;-;;-;-;-;-;;;;;;-;;--;;-;;-;;;;-;;----=-;;;:,<24566788",
" ..oOO@##***--;;:;;;;-;;;;;---;;-;;;;;-;;;-;--;;;;;-;;;;;;-;;;--;----;-;-----;--;;;--;;-;-;-;;;--;;;-;---;-----*---;:>,<25668899",
"..oooOO@#&**--;;;;;----;--;;;;;;;;;-;-;;-;;----;;-;-;-;---;----------;------;-------;--;;-;;;-;;;-----------;---=--;;>,235688999",
"  ..ooO##&**----;------;-;-;;--;-;;--;------------;;;-;;--------------------------------;;;;-;;-----------------=--;;>,<35688990",
"  .ooO@##&**--------------;-;;;;;;;;;------------;-;-;--------------------------------------;-;;--------------*-===;:>,235688990",
"   ..OO#$$&*--;;----;----;-;;;;;;;;;--;------------;;;;;------------;---------------------;-;;;;------;;-----==-==--;><145788900",
"    oOO@$$*=-;;;;---;;-----;;-;;;;-;;;------;;----;-;;;;------------;;---------*;;---------;;;;;-------;---------=--;>,125678999",
"   ooOO@#&*=--;;;;--;;;;;;;--;-;;-;;-;-;;---;;;;;;-;-;;;--;---;;----;;;;---;-;--;;;;---;;-;;;;;;--;;--;;------;----;;>,135688999",
"oooOOO##$&=--;;;;;;;;;;;;;;;;;-;;-;-;;;;;;;;;;;;;;;;;;;;;;;;--;;;;--;;;;-;;;;;;;;;;;--;;;;;;;;;;;;;;;;;;;-;;--;;-;;;:><135678899",
"OOOO###$&*--;:;::::;:;;;:;;;;;;-;-;;;;;;;;;:;:;;;;;;;;;;;;:::;::;::;:;:;;:;:;:;:;::;:;;;;;;;;;;;;;:;;:;;;;>;;;:;;;;>>,<245778999",
"@####$$&=-;:>>,>>>>>>>>;;;;;;---;;;;;;:;:::>::::;:;;;;:;:;::>>>>>>>>>>>>>>>>>>>>>>>:>::::;;;;;;;;>>>>>,>>>>,>>>>>>>>,,1245788989",
"&&&&*=-;;:>,<<<1<<<,,,>>>::;;---;;;;;::::>,,,>>>:;;;;:;:>>>,,,<,,,<,<,<,,<,<,<,,,<,,,,>:::;;:;:>>>,,<,,<,<<,<,,,,,,,<12456788999",
"----:;;:,<<<11<11111<<,,>:;;;---;;;;;;:>,,<<<<<,>:::;;:>,,<<111111111111111111111211<<,,:;;:;:;>,,<<1111111111111112224556788889",
">>,,,,,<11133333333331<<>>>;;;------;;>,,113311,>>:;;;>,,<2333343333333333333333433331<,>::;:;:>,<123334333233223232355667888899",
"11121233345555455555333<,>>;;;---*--;:><13333311,>>;::>,<134455555555554555554555554432<,::;;:>,<1245555555555555555555778888998",
"44445555555755777756553<<,:;-------;::,<13455431<>>:;:>,1345566766665666666666676766443<,>::::><12555666666666666666677788888889",
"66666766778888888887755<<,>;---=---;;>,<34566541<,>;::,<23567887878787877787787888786541<,:;::,<24567788887778777787788888889988",
"877777888888888888887553<,>:;---*--;:>,1356676531,>;;>,<14578898888888888888889888887541<,::::><14578888888888888888888888898898",
"990999990888800880888753<,>;;--=---;;><1357777531,>::>,<35688899999989999898989908888643<,:::>,<35688000999998989998989899889889",
"0990999908000880080887531<>:--==-*;;:>,2367777531,>::>,134689999099998999999999900088753<,::;>,135688000999999999999899998989889",
"000000090088000000008754<<>;---=--;;:><1467887541,>:;>,<356890090999999999999900000887531>:::>,<25788080909999999999999989898988"
};
